<svg width="96" height="96" viewBox="0 0 96 96" fill="none" xmlns="http://www.w3.org/2000/svg">
<g filter="url(#filter0_d)">
<circle cx="48" cy="44" r="28" fill="#D9985F"/>
</g>
<path opacity="0.1" d="M64.3715 60.507L54.8125 50.948L55.0975 50.663C55.5273 50.2333 55.5273 49.5366 55.0975 49.1068C54.6678 48.677 53.9711 48.677 53.5413 49.1068L53.4252 49.2229L51.941 46.9158C55.1272 42.3085 54.6699 35.9428 50.568 31.8409C45.9508 27.2238 38.465 27.2238 33.8478 31.8409C29.2306 36.4581 29.2306 43.944 33.8478 48.5611C37.9497 52.663 44.3154 53.1203 48.9226 49.9341L51.2297 51.4183L51.1136 51.5344C50.6839 51.9641 50.6839 52.6609 51.1136 53.0906C51.5434 53.5204 52.2401 53.5204 52.6699 53.0906L52.9549 52.8056L62.5139 62.3646C63.0268 62.8776 63.8585 62.8776 64.3715 62.3646C64.8846 61.8517 64.8846 61.02 64.3715 60.507Z" fill="#731717"/>
<path d="M53.7113 47.6745L51.3943 44.0728L48.0729 47.3942L51.6745 49.7113L53.7113 47.6745Z" fill="#BF2431"/>
<path d="M64.3715 60.3716C63.8585 60.8845 63.0268 60.8845 62.5139 60.3716L51.8828 49.7405L53.7405 47.8828L64.3716 58.5139C64.8846 59.0269 64.8846 59.8586 64.3715 60.3716Z" fill="#731717"/>
<path d="M57.2611 51.4033L56.0126 50.1549L54.155 52.0126L55.4055 53.2631C56.0246 52.6437 56.6432 52.024 57.2611 51.4033Z" fill="#731717"/>
<path d="M42.2079 50.0309C48.7376 50.0309 54.0309 44.7376 54.0309 38.208C54.0309 31.6783 48.7376 26.385 42.2079 26.385C35.6783 26.385 30.3849 31.6783 30.3849 38.208C30.3849 44.7376 35.6783 50.0309 42.2079 50.0309Z" fill="#BF472C"/>
<path d="M42.208 48.7069C39.4036 48.7069 36.767 47.6148 34.7841 45.6318C30.6906 41.5383 30.6906 34.8776 34.7841 30.7841C36.7671 28.8011 39.4037 27.709 42.208 27.709C45.0123 27.709 47.6489 28.8011 49.6318 30.7841C51.6148 32.767 52.7069 35.4036 52.7069 38.208C52.7069 41.0123 51.6148 43.6488 49.6318 45.6318C47.6489 47.6148 45.0124 48.7069 42.208 48.7069Z" fill="#731717"/>
<path d="M42.208 47.6134C47.4025 47.6134 51.6134 43.4025 51.6134 38.208C51.6134 33.0135 47.4025 28.8025 42.208 28.8025C37.0135 28.8025 32.8025 33.0135 32.8025 38.208C32.8025 43.4025 37.0135 47.6134 42.208 47.6134Z" fill="white"/>
<path d="M37.0737 41.6031C36.75 41.6031 36.4877 41.3407 36.4877 41.0171V39.9316C36.4877 37.0165 38.8592 34.645 41.7743 34.645C41.8638 34.645 41.9542 34.6473 42.0427 34.6517C42.3659 34.6679 42.6148 34.943 42.5985 35.2662C42.5824 35.5894 42.3078 35.8374 41.984 35.822C41.915 35.8186 41.8444 35.8168 41.7743 35.8168C39.5055 35.8168 37.6596 37.6627 37.6596 39.9315V41.017C37.6596 41.3407 37.3973 41.6031 37.0737 41.6031Z" fill="#BF2431"/>
<path d="M47.0602 39.9314V46.2665C46.6812 46.4962 46.2898 46.6954 45.8883 46.8658V39.9314C45.8883 38.4415 45.0789 37.0642 43.7773 36.3369C43.4945 36.179 43.3937 35.822 43.5516 35.5392C43.7094 35.2572 44.0664 35.1556 44.3492 35.3134C46.0211 36.2486 47.0602 38.0173 47.0602 39.9314Z" fill="#BF2431"/>
<path d="M37.6586 43.3058V46.4423C37.2531 46.2189 36.8617 45.9627 36.4867 45.6744V43.3058C36.4867 42.9823 36.7492 42.7198 37.0726 42.7198C37.3961 42.7198 37.6586 42.9823 37.6586 43.3058Z" fill="#BF2431"/>
<path d="M44.6484 39.6626C44.6484 39.9861 44.3867 40.2486 44.0625 40.2486C43.739 40.2486 43.4765 39.9861 43.4765 39.6626C43.4765 38.7236 42.7125 37.9587 41.7734 37.9587C40.8344 37.9587 40.0695 38.7236 40.0695 39.6626V47.3681C39.6726 47.2759 39.2812 47.158 38.8976 47.0134V39.6626C38.8976 38.0775 40.1875 36.7869 41.7734 36.7869C43.3586 36.7869 44.6484 38.0775 44.6484 39.6626Z" fill="#BF2431"/>
<path d="M44.6484 41.8713V47.2923C44.2625 47.3962 43.8711 47.4743 43.4766 47.5274V41.8713C43.4766 41.5471 43.7391 41.2854 44.0625 41.2854C44.3867 41.2854 44.6484 41.5471 44.6484 41.8713Z" fill="#BF2431"/>
<path d="M42.3594 45.8696V47.6118C41.968 47.6181 41.5766 47.6001 41.1875 47.5579V45.8696C41.1875 45.5462 41.45 45.2837 41.7734 45.2837C42.0969 45.2837 42.3594 45.5462 42.3594 45.8696Z" fill="#BF2431"/>
<path d="M41.7733 42.914C41.4496 42.914 41.1874 42.6517 41.1874 42.3281V40.0338C41.1874 39.7102 41.4496 39.4479 41.7733 39.4479C42.097 39.4479 42.3593 39.7102 42.3593 40.0338V42.3281C42.3593 42.6517 42.0969 42.914 41.7733 42.914Z" fill="#BF2431"/>
<path d="M41.7733 44.6747C41.4496 44.6747 41.1874 44.4124 41.1874 44.0888V43.9719C41.1874 43.6483 41.4496 43.386 41.7733 43.386C42.097 43.386 42.3593 43.6483 42.3593 43.9719V44.0888C42.3593 44.4124 42.0969 44.6747 41.7733 44.6747Z" fill="#BF2431"/>
<path d="M55.0975 48.67L52.6699 51.0976C52.2401 51.5274 51.5434 51.5274 51.1136 51.0976C50.6838 50.6678 50.6838 49.9711 51.1136 49.5414L53.5413 47.1137C53.971 46.6839 54.6678 46.6839 55.0975 47.1137C55.5273 47.5435 55.5273 48.2403 55.0975 48.67Z" fill="#BF472C"/>
<path d="M64.6477 58.2377L56.9485 50.5385C56.7961 50.386 56.5486 50.386 56.3962 50.5385C56.2436 50.6911 56.2436 50.9384 56.3962 51.0909L64.0953 58.7901C64.2696 58.9644 64.3656 59.1962 64.3656 59.4427C64.3656 59.6892 64.2696 59.921 64.0952 60.0953C63.921 60.2696 63.6892 60.3656 63.4427 60.3656C63.1961 60.3656 62.9644 60.2696 62.79 60.0953L53.5072 50.8125L55.3736 48.9461C55.6552 48.6645 55.8104 48.2901 55.8104 47.8917C55.8104 47.4934 55.6553 47.119 55.3737 46.8374C55.0921 46.5558 54.7177 46.4007 54.3194 46.4007C54.0277 46.4007 53.7491 46.4847 53.5101 46.6398L52.4085 44.9273C55.5317 40.1891 55.0102 33.7376 50.8442 29.5715C46.0822 24.8095 38.3335 24.8095 33.5716 29.5715C28.8095 34.3336 28.8095 42.082 33.5716 46.8441C35.5366 48.8091 38.0316 50.0175 40.7868 50.3385C41.0018 50.3638 41.1951 50.2099 41.22 49.9957C41.2449 49.7814 41.0914 49.5874 40.8772 49.5625C38.2985 49.262 35.9633 48.131 34.1239 46.2916C31.9646 44.1323 30.7756 41.2615 30.7756 38.2077C30.7756 35.154 31.9647 32.2831 34.1239 30.1238C36.2833 27.9645 39.1542 26.7754 42.2078 26.7754C45.2616 26.7754 48.1324 27.9645 50.2918 30.1238C52.4511 32.2831 53.6402 35.154 53.6402 38.2077C53.6402 41.2615 52.451 44.1323 50.2918 46.2916C48.452 48.1314 46.0161 49.2971 43.433 49.5738C43.2185 49.5968 43.0632 49.7894 43.0862 50.0038C43.1077 50.2042 43.277 50.3529 43.4742 50.3529C43.4881 50.3529 43.502 50.3521 43.5162 50.3506C45.4516 50.1433 47.3091 49.4684 48.9242 48.4063L50.6399 49.5101C50.4846 49.7491 50.4006 50.0277 50.4006 50.3193C50.4006 50.7176 50.5557 51.092 50.8374 51.3736C51.1189 51.6552 51.4934 51.8103 51.8917 51.8103C52.29 51.8103 52.6645 51.6552 52.9459 51.3736L52.9548 51.3648L62.2375 60.6476C62.5594 60.9695 62.9874 61.1467 63.4426 61.1467C63.8978 61.1467 64.3258 60.9695 64.6476 60.6476C64.9695 60.3257 65.1468 59.8977 65.1468 59.4426C65.1469 58.9875 64.9695 58.5595 64.6477 58.2377ZM50.8442 46.8442C51.2354 46.453 51.5938 46.0413 51.9207 45.6131L52.9263 47.1763L51.1763 48.9263L49.6118 47.9197C50.0447 47.5902 50.457 47.2314 50.8442 46.8442ZM51.8918 51.0292C51.7021 51.0292 51.5239 50.9554 51.3899 50.8213C51.2558 50.6873 51.182 50.509 51.182 50.3195C51.182 50.1299 51.2558 49.9516 51.3899 49.8176L53.8176 47.3898C53.9516 47.2558 54.1298 47.182 54.3195 47.182C54.5091 47.182 54.6873 47.2558 54.8213 47.3898C54.9554 47.5239 55.0292 47.7022 55.0292 47.8917C55.0292 48.0813 54.9554 48.2595 54.8213 48.3936L52.3936 50.8213C52.2596 50.9554 52.0814 51.0292 51.8918 51.0292Z" fill="#731717"/>
<path d="M54.9754 30.1524C54.8949 30.1524 54.8142 30.1276 54.7459 30.0778L54.4926 29.8938L54.2393 30.0778C54.1024 30.1773 53.9171 30.1773 53.7801 30.0778C53.6432 29.9784 53.586 29.802 53.6383 29.6411L53.735 29.3434L53.4818 29.1595C53.3449 29.06 53.2876 28.8837 53.3399 28.7228C53.3922 28.5618 53.5422 28.4528 53.7114 28.4528H54.0245L54.1212 28.1552C54.1735 27.9942 54.3235 27.8853 54.4927 27.8853C54.6619 27.8853 54.8119 27.9942 54.8642 28.1552L54.9609 28.4528H55.2739C55.4431 28.4528 55.5931 28.5618 55.6454 28.7228C55.6978 28.8837 55.6405 29.06 55.5035 29.1595L55.2503 29.3434L55.3471 29.6411C55.3994 29.802 55.3421 29.9784 55.2053 30.0778C55.1365 30.1276 55.056 30.1524 54.9754 30.1524Z" fill="#BF472C"/>
<path d="M47.7744 53.7601C47.6938 53.7601 47.6132 53.7353 47.5448 53.6855L47.2916 53.5015L47.0385 53.6855C46.9016 53.785 46.7161 53.785 46.5792 53.6855C46.4423 53.5861 46.385 53.4098 46.4374 53.2488L46.534 52.9511L46.2808 52.7671C46.1438 52.6676 46.0866 52.4913 46.1389 52.3304C46.1912 52.1694 46.3412 52.0605 46.5104 52.0605H46.8235L46.9202 51.7627C46.9724 51.6018 47.1224 51.4928 47.2917 51.4928C47.4609 51.4928 47.6109 51.6018 47.6631 51.7627L47.7599 52.0605H48.0729C48.2421 52.0605 48.3921 52.1694 48.4444 52.3304C48.4967 52.4913 48.4395 52.6676 48.3026 52.7671L48.0494 52.9511L48.146 53.2488C48.1984 53.4098 48.1411 53.5861 48.0042 53.6855C47.9355 53.7353 47.8549 53.7601 47.7744 53.7601Z" fill="#BF2431"/>
<path d="M57.6104 31.9483C57.5105 31.9483 57.4104 31.9102 57.3342 31.8339L56.9463 31.4461L56.5584 31.8339C56.406 31.9864 56.1585 31.9864 56.0061 31.8339C55.8535 31.6813 55.8535 31.434 56.0061 31.2815L56.6702 30.6174C56.8226 30.4649 57.0701 30.4649 57.2225 30.6174L57.8866 31.2815C58.0391 31.4341 58.0391 31.6814 57.8866 31.8339C57.8104 31.9102 57.7104 31.9483 57.6104 31.9483Z" fill="#BF2431"/>
<path d="M35.0727 51.1318C34.9728 51.1318 34.8727 51.0936 34.7965 51.0174L34.4086 50.6296L34.0207 51.0174C33.8683 51.1699 33.6208 51.1699 33.4684 51.0174C33.3158 50.8648 33.3158 50.6175 33.4684 50.465L34.1324 49.8009C34.2849 49.6484 34.5324 49.6484 34.6848 49.8009L35.3488 50.465C35.5014 50.6175 35.5014 50.8649 35.3488 51.0174C35.2726 51.0936 35.1726 51.1318 35.0727 51.1318Z" fill="#731717"/>
<path d="M54.9754 57.6972C54.8949 57.6972 54.8142 57.6724 54.7458 57.6226L54.4926 57.4386L54.2394 57.6226C54.1024 57.722 53.9171 57.722 53.7801 57.6226C53.6432 57.5231 53.586 57.3468 53.6383 57.1859L53.735 56.8881L53.4818 56.7042C53.3449 56.6048 53.2876 56.4284 53.3399 56.2675C53.3922 56.1066 53.5422 55.9976 53.7114 55.9976H54.0245L54.1212 55.6999C54.1735 55.5389 54.3235 55.4299 54.4927 55.4299C54.6619 55.4299 54.8119 55.5389 54.8642 55.6999L54.9609 55.9976H55.2739C55.4431 55.9976 55.5931 56.1066 55.6454 56.2675C55.6978 56.4284 55.6405 56.6048 55.5035 56.7042L55.2503 56.8881L55.3471 57.1859C55.3994 57.3468 55.3421 57.5231 55.2053 57.6226C55.1365 57.6724 55.056 57.6972 54.9754 57.6972Z" fill="#BF472C"/>
<path d="M46.2536 39.363C47.9923 39.363 49.4017 37.9536 49.4017 36.2149C49.4017 34.4763 47.9923 33.0669 46.2536 33.0669C44.515 33.0669 43.1056 34.4763 43.1056 36.2149C43.1056 37.9536 44.515 39.363 46.2536 39.363Z" fill="#BF472C"/>
<path d="M47.5515 35.7614C47.5515 35.0457 46.9693 34.4635 46.2536 34.4635C45.538 34.4635 44.9557 35.0458 44.9557 35.7614C44.9557 36.1144 45.0978 36.4344 45.3272 36.6687C45.0979 36.9029 44.9557 37.223 44.9557 37.5759C44.9557 37.7916 45.1306 37.9665 45.3464 37.9665C45.5622 37.9665 45.737 37.7916 45.737 37.5759C45.737 37.2911 45.9688 37.0593 46.2536 37.0593C46.5385 37.0593 46.7703 37.2911 46.7703 37.5759C46.7703 37.7916 46.9451 37.9665 47.1609 37.9665C47.3767 37.9665 47.5515 37.7916 47.5515 37.5759C47.5515 37.223 47.4095 36.9029 47.18 36.6687C47.4095 36.4344 47.5515 36.1144 47.5515 35.7614ZM46.2536 35.2448C46.5385 35.2448 46.7703 35.4765 46.7703 35.7614C46.7703 36.0462 46.5385 36.278 46.2536 36.278C45.9688 36.278 45.737 36.0462 45.737 35.7614C45.737 35.4765 45.9688 35.2448 46.2536 35.2448Z" fill="white"/>
<defs>
<filter id="filter0_d" x="0" y="0" width="96" height="96" filterUnits="userSpaceOnUse" color-interpolation-filters="sRGB">
<feFlood flood-opacity="0" result="BackgroundImageFix"/>
<feColorMatrix in="SourceAlpha" type="matrix" values="0 0 0 0 0 0 0 0 0 0 0 0 0 0 0 0 0 0 127 0"/>
<feOffset dy="4"/>
<feGaussianBlur stdDeviation="10"/>
<feColorMatrix type="matrix" values="0 0 0 0 0.45098 0 0 0 0 0.0901961 0 0 0 0 0.0901961 0 0 0 0.1 0"/>
<feBlend mode="normal" in2="BackgroundImageFix" result="effect1_dropShadow"/>
<feBlend mode="normal" in="SourceGraphic" in2="effect1_dropShadow" result="shape"/>
</filter>
</defs>
</svg>
