<svg width="96" height="96" viewBox="0 0 96 96" fill="none" xmlns="http://www.w3.org/2000/svg">
<g filter="url(#filter0_d)">
<circle cx="48" cy="44" r="28" fill="#D9985F"/>
</g>
<path opacity="0.1" d="M60.2676 29.7007C60.7317 29.7007 61.108 29.3245 61.108 28.8603V27.9757C61.108 27.5115 60.7317 27.1353 60.2676 27.1353H36.5934C36.1292 27.1353 35.753 27.5115 35.753 27.9757V28.8603C35.753 29.3244 36.1292 29.7007 36.5934 29.7007H37.0887L37.4583 42.305C37.0156 42.6152 36.7254 43.1285 36.7254 43.7102C36.7254 43.9552 36.7776 44.1877 36.8701 44.3986H36.8245C36.2521 44.3986 35.788 44.8625 35.788 45.435C35.788 46.0074 36.252 46.4715 36.8245 46.4715H36.8701C36.7776 46.6823 36.7254 46.9149 36.7254 47.1598C36.7254 47.7416 37.0156 48.2547 37.4583 48.565L37.0887 61.1693H36.5934C36.1292 61.1693 35.753 61.5455 35.753 62.0097V62.8943C35.753 63.3584 36.1292 63.7347 36.5934 63.7347H60.2676C60.7317 63.7347 61.108 63.3584 61.108 62.8943V62.0097C61.108 61.5455 60.7317 61.1693 60.2676 61.1693H59.7723L59.4026 48.565C59.8454 48.2547 60.1356 47.7415 60.1356 47.1598C60.1356 46.9149 60.0834 46.6823 59.9908 46.4715H60.0365C60.6089 46.4715 61.0729 46.0074 61.0729 45.435C61.0729 44.8626 60.609 44.3986 60.0365 44.3986H59.9908C60.0834 44.1877 60.1356 43.9552 60.1356 43.7102C60.1356 43.1285 59.8454 42.6153 59.4026 42.305L59.7723 29.7007H60.2676V29.7007ZM46.1455 42.3076C44.0652 40.2591 41.7072 37.9372 41.7072 35.2905C41.7072 33.6885 42.3707 32.3614 43.6258 31.4523C44.8111 30.5937 46.5176 30.1209 48.4305 30.1209C50.3434 30.1209 52.0497 30.5937 53.2352 31.4523C54.4903 32.3613 55.1538 33.6885 55.1538 35.2905C55.1538 37.9372 52.7958 40.2591 50.7154 42.3076C49.8636 43.1464 49.0513 43.9463 48.4305 44.7308C47.8096 43.9463 46.9973 43.1464 46.1455 42.3076ZM50.7154 48.5624C52.7958 50.6109 55.1538 52.9328 55.1538 55.5796C55.1538 57.1815 54.4903 58.5087 53.2352 59.4177C52.0498 60.2764 50.3434 60.7492 48.4305 60.7492C46.5176 60.7492 44.8112 60.2764 43.6258 59.4177C42.3706 58.5088 41.7072 57.1815 41.7072 55.5796C41.7072 52.9328 44.0652 50.6109 46.1455 48.5624C46.9974 47.7237 47.8097 46.9237 48.4305 46.1392C49.0514 46.9237 49.8637 47.7237 50.7154 48.5624ZM39.4242 48.565C39.8669 48.2547 40.1571 47.7415 40.1571 47.1598C40.1571 46.9149 40.1049 46.6823 40.0124 46.4715H40.058C40.6304 46.4715 41.0945 46.0074 41.0945 45.435C41.0945 44.8626 40.6305 44.3986 40.058 44.3986H40.0124C40.1049 44.1877 40.1571 43.9552 40.1571 43.7102C40.1571 43.1285 39.8669 42.6153 39.4242 42.305L39.7937 29.7007H45.3585C44.5218 29.9506 43.7721 30.3087 43.1327 30.7717C41.6502 31.8454 40.8667 33.4079 40.8667 35.2906C40.8667 38.2893 43.3579 40.7422 45.5557 42.9065C46.4571 43.7941 47.3128 44.6367 47.9123 45.4351C47.3128 46.2335 46.4571 47.0761 45.5557 47.9637C43.3579 50.128 40.8667 52.5809 40.8667 55.5796C40.8667 57.4622 41.6502 59.0248 43.1327 60.0985C43.7721 60.5615 44.5218 60.9196 45.3585 61.1695H39.7937L39.4242 48.565ZM56.8485 44.3986H56.8029C56.2305 44.3986 55.7664 44.8625 55.7664 45.435C55.7664 46.0074 56.2304 46.4715 56.8029 46.4715H56.8485C56.756 46.6823 56.7038 46.9149 56.7038 47.1598C56.7038 47.7416 56.994 48.2547 57.4367 48.565L57.0672 61.1693H51.5024C52.3391 60.9194 53.0888 60.5613 53.7282 60.0983C55.2107 59.0247 55.9942 57.4621 55.9942 55.5795C55.9942 52.5808 53.503 50.1278 51.3052 47.9635C50.4038 47.076 49.548 46.2333 48.9486 45.4349C49.548 44.6366 50.4038 43.7939 51.3052 42.9063C53.503 40.7421 55.9942 38.2891 55.9942 35.2904C55.9942 33.4078 55.2107 31.8453 53.7282 30.7716C53.0888 30.3085 52.3391 29.9504 51.5024 29.7006H57.0672L57.4367 42.3049C56.994 42.6151 56.7038 43.1284 56.7038 43.71C56.7039 43.9552 56.756 44.1878 56.8485 44.3986Z" fill="#731717"/>
<path d="M41.4163 34.0001C41.0163 37.2001 45.9163 41.6667 48.4163 43.5001L52.9163 39L55.4163 35.5V33L54.4163 30L50.4163 28.0001C49.4163 27.5001 46.9163 27.5001 44.9163 28.5001C42.9163 29.5001 41.9163 30.0001 41.4163 34.0001Z" fill="white"/>
<path d="M55.9163 54C56.3163 50.8 50.4163 45.8334 47.9163 44L44.4163 48.5L41.9163 50L40.9163 54L42.9163 57.5L46.9163 59.5C47.9163 60 49.9163 60 51.9163 59C53.9163 58 55.4163 58 55.9163 54Z" fill="white"/>
<path d="M39.383 41.9952H37.4995L37.0706 27.3708H39.8118L39.383 41.9952Z" fill="#FFAB66"/>
<path d="M39.7484 29.534L39.8118 27.3708H37.0706L37.1341 29.534H39.7484Z" fill="#D9985F"/>
<path d="M37.4995 45.4446H39.383L39.8118 60.0689H37.0706L37.4995 45.4446Z" fill="#FFAB66"/>
<path d="M39.4642 48.2109C39.1793 48.4235 38.8247 48.5496 38.4415 48.5496C38.0582 48.5496 37.7044 48.4235 37.4187 48.2109L37.4994 45.4443H39.3827L39.4642 48.2109Z" fill="#D9985F"/>
<path d="M38.4413 43.711C39.3889 43.711 40.1572 42.9428 40.1572 41.9951C40.1572 41.0474 39.3889 40.2792 38.4413 40.2792C37.4936 40.2792 36.7253 41.0474 36.7253 41.9951C36.7253 42.9428 37.4936 43.711 38.4413 43.711Z" fill="#BF472C"/>
<path d="M38.4413 47.1607C39.3889 47.1607 40.1572 46.3925 40.1572 45.4448C40.1572 44.4971 39.3889 43.7289 38.4413 43.7289C37.4936 43.7289 36.7253 44.4971 36.7253 45.4448C36.7253 46.3925 37.4936 47.1607 38.4413 47.1607Z" fill="#BF472C"/>
<path d="M40.0581 44.7563H36.8245C36.2521 44.7563 35.788 44.2922 35.788 43.7198C35.788 43.1474 36.2521 42.6833 36.8245 42.6833H40.0581C40.6305 42.6833 41.0946 43.1474 41.0946 43.7198C41.0945 44.2923 40.6305 44.7563 40.0581 44.7563Z" fill="#D9985F"/>
<path d="M59.3615 41.9951H57.478L57.0491 27.3707H59.7903L59.3615 41.9951Z" fill="#FFAB66"/>
<path d="M59.7269 29.5338L59.7903 27.3707H57.0491L57.1126 29.5338H59.7269Z" fill="#D9985F"/>
<path d="M57.478 45.4445H59.3615L59.7903 60.0688H57.0491L57.478 45.4445Z" fill="#FFAB66"/>
<path d="M59.4422 48.2108C59.1565 48.4234 58.8027 48.5495 58.4195 48.5495C58.0362 48.5495 57.6816 48.4234 57.3967 48.2108L57.4782 45.4442H59.3616L59.4422 48.2108Z" fill="#D9985F"/>
<path d="M58.4197 43.7109C59.3674 43.7109 60.1356 42.9427 60.1356 41.995C60.1356 41.0473 59.3674 40.2791 58.4197 40.2791C57.472 40.2791 56.7038 41.0473 56.7038 41.995C56.7038 42.9427 57.472 43.7109 58.4197 43.7109Z" fill="#BF472C"/>
<path d="M58.4197 47.1606C59.3674 47.1606 60.1356 46.3924 60.1356 45.4447C60.1356 44.497 59.3674 43.7288 58.4197 43.7288C57.472 43.7288 56.7038 44.497 56.7038 45.4447C56.7038 46.3924 57.472 47.1606 58.4197 47.1606Z" fill="#BF472C"/>
<path d="M60.0365 44.7562H56.8029C56.2305 44.7562 55.7665 44.2921 55.7665 43.7197C55.7665 43.1473 56.2305 42.6832 56.8029 42.6832H60.0365C60.6089 42.6832 61.073 43.1473 61.073 43.7197C61.0729 44.2922 60.6089 44.7562 60.0365 44.7562Z" fill="#D9985F"/>
<path d="M60.2675 27.9857H36.5933C36.1292 27.9857 35.7529 27.6094 35.7529 27.1453V26.2607C35.7529 25.7965 36.1292 25.4203 36.5933 25.4203H60.2674C60.7316 25.4203 61.1078 25.7965 61.1078 26.2607V27.1453C61.1079 27.6094 60.7317 27.9857 60.2675 27.9857Z" fill="#BF2431"/>
<path d="M60.2675 62.0198H36.5933C36.1292 62.0198 35.7529 61.6436 35.7529 61.1794V60.2947C35.7529 59.8306 36.1292 59.4543 36.5933 59.4543H60.2674C60.7316 59.4543 61.1078 59.8306 61.1078 60.2947V61.1794C61.1079 61.6436 60.7317 62.0198 60.2675 62.0198Z" fill="#BF2431"/>
<path d="M51.1146 28.3155C50.2857 28.0969 49.3801 27.9856 48.4305 27.9856C47.4808 27.9856 46.5752 28.0969 45.7463 28.3155H51.1146Z" fill="#BF472C"/>
<path d="M43.2581 38.1431C44.9378 40.2132 47.2604 42.0276 48.4305 43.7199C49.6006 42.0276 51.9233 40.2132 53.6029 38.1431H43.2581Z" fill="#BF472C"/>
<path d="M49.1326 47.3221C48.6276 45.4468 48.4305 43.7198 48.4305 43.7198C48.4305 43.7198 48.2333 45.4468 47.7282 47.3221C47.1729 49.3841 45.7757 51.1215 43.8796 52.104C42.4736 52.8326 41.2869 53.5428 41.2869 53.8645C41.2869 57.554 44.4852 59.4542 48.4304 59.4542C52.3756 59.4542 55.5739 57.554 55.5739 53.8645C55.5739 53.5428 54.3871 52.8326 52.9812 52.104C51.0852 51.1215 49.6881 49.3841 49.1326 47.3221Z" fill="#BF472C"/>
<path d="M60.2676 28.406C60.9627 28.406 61.5282 27.8405 61.5282 27.1454V26.2606C61.5282 25.5655 60.9627 25 60.2676 25H36.5934C35.8983 25 35.3328 25.5655 35.3328 26.2606V27.1453C35.3328 27.8404 35.8983 28.4059 36.5934 28.4059H39.361L39.0228 39.9403C38.8377 39.8878 38.6428 39.8591 38.4411 39.8591C38.2395 39.8591 38.0446 39.8877 37.8595 39.9403L37.5923 30.8264C37.5855 30.5944 37.3923 30.4149 37.16 30.4186C36.9279 30.4254 36.7454 30.6191 36.7522 30.851L37.0319 40.3919C36.5867 40.7836 36.3049 41.357 36.3049 41.9952C36.3049 42.1145 36.3155 42.2328 36.3353 42.3496C35.7722 42.5511 35.3676 43.0885 35.3676 43.72C35.3676 44.3514 35.772 44.8886 36.3349 45.0902C36.3154 45.2068 36.3049 45.325 36.3049 45.4447C36.3049 46.083 36.5867 46.6564 37.032 47.0481L36.6805 59.034H36.5934C35.8983 59.034 35.3328 59.5995 35.3328 60.2946V61.1792C35.3328 61.8743 35.8983 62.4398 36.5934 62.4398H60.2675C60.9626 62.4398 61.5281 61.8743 61.5281 61.1792V60.2946C61.5281 59.5995 60.9626 59.034 60.2675 59.034H60.1802L59.8952 49.3114C59.8884 49.0794 59.6954 48.9007 59.4628 48.9036C59.2308 48.9104 59.0482 49.1041 59.055 49.336L59.3394 59.034H57.4997L57.838 47.4997C58.023 47.5521 58.2179 47.5808 58.4196 47.5808C59.5975 47.5808 60.5557 46.6225 60.5557 45.4446C60.5557 45.3259 60.5447 45.2076 60.5247 45.0905C61.0881 44.8891 61.4931 44.3515 61.4931 43.7198C61.4931 43.0884 61.0885 42.551 60.5254 42.3494C60.5452 42.2326 60.5557 42.1143 60.5557 41.995C60.5557 41.3568 60.274 40.7834 59.8288 40.3917L60.1802 28.4058H60.2676V28.406ZM36.1732 27.1454V26.2606C36.1732 26.0289 36.3617 25.8404 36.5934 25.8404H60.2675C60.4992 25.8404 60.6877 26.0289 60.6877 26.2606V27.1453C60.6877 27.377 60.4992 27.5655 60.2675 27.5655H36.5934C36.3617 27.5656 36.1732 27.3771 36.1732 27.1454ZM46.1455 40.5927C44.0652 38.5442 41.7072 36.2223 41.7072 33.5755C41.7072 31.9735 42.3707 30.6464 43.6257 29.7374C44.8112 28.8788 46.5175 28.406 48.4305 28.406C50.3434 28.406 52.0497 28.8788 53.2352 29.7374C54.4903 30.6464 55.1537 31.9735 55.1537 33.5755C55.1537 36.2223 52.7957 38.5442 50.7154 40.5927C49.8636 41.4314 49.0513 42.2314 48.4305 43.0159C47.8096 42.2314 46.9972 41.4314 46.1455 40.5927ZM50.7154 46.8473C52.7957 48.8959 55.1537 51.2177 55.1537 53.8646C55.1537 55.4665 54.4902 56.7937 53.2352 57.7027C52.0498 58.5613 50.3434 59.0341 48.4305 59.0341C46.5175 59.0341 44.8112 58.5613 43.6257 57.7027C42.3706 56.7937 41.7072 55.4665 41.7072 53.8646C41.7072 51.2177 44.0652 48.8959 46.1455 46.8473C46.9973 46.0086 47.8097 45.2086 48.4305 44.4241C49.0513 45.2086 49.8637 46.0086 50.7154 46.8473ZM40.2019 28.406H44.2448C43.8452 28.593 43.4734 28.81 43.1327 29.0567C41.6502 30.1303 40.8667 31.6929 40.8667 33.5755C40.8667 36.5743 43.3579 39.0273 45.5557 41.1915C46.457 42.079 47.3128 42.9217 47.9123 43.72C47.3128 44.5184 46.457 45.3611 45.5558 46.2486C43.3579 48.4128 40.8667 50.8659 40.8667 53.8647C40.8667 55.7472 41.6502 57.3097 43.1327 58.3834C43.4734 58.6301 43.8453 58.8472 44.2449 59.0342H40.2018L39.8504 47.0482C40.2956 46.6564 40.5774 46.0831 40.5774 45.4449C40.5774 45.3252 40.5669 45.2069 40.5474 45.0904C41.1102 44.8887 41.5147 44.3514 41.5147 43.7201C41.5147 43.0887 41.11 42.5513 40.5469 42.3498C40.5668 42.233 40.5773 42.1146 40.5773 41.9954C40.5773 41.3572 40.2956 40.7839 39.8503 40.3921L40.2019 28.406ZM37.1455 45.4448C37.1455 45.3539 37.1555 45.2644 37.1741 45.1767H39.7085C39.727 45.2644 39.737 45.3539 39.737 45.4448C39.737 46.1593 39.1557 46.7405 38.4412 46.7405C37.7267 46.7405 37.1455 46.1593 37.1455 45.4448ZM39.737 41.9952C39.737 42.0857 39.7265 42.1752 39.7075 42.2634H37.1748C37.1559 42.1752 37.1454 42.0856 37.1454 41.9952C37.1454 41.2808 37.7266 40.6996 38.4411 40.6996C39.1557 40.6996 39.737 41.2808 39.737 41.9952ZM36.8244 43.1038H40.0581C40.3978 43.1038 40.6743 43.3802 40.6743 43.72C40.6743 44.0597 40.3978 44.3362 40.0581 44.3362H36.8244C36.4846 44.3362 36.2081 44.0597 36.2081 43.72C36.2081 43.3802 36.4846 43.1038 36.8244 43.1038ZM37.8596 47.4997C38.0446 47.5522 38.2395 47.5808 38.4411 47.5808C38.6428 47.5808 38.8377 47.5522 39.0228 47.4997L39.361 59.034H37.5213L37.8596 47.4997ZM60.6878 60.2947V61.1793C60.6878 61.411 60.4993 61.5995 60.2676 61.5995H36.5934C36.3617 61.5995 36.1732 61.411 36.1732 61.1793V60.2947C36.1732 60.063 36.3617 59.8745 36.5934 59.8745H60.2675C60.4992 59.8745 60.6878 60.063 60.6878 60.2947ZM56.6591 59.0341H52.616C53.0155 58.8471 53.3875 58.6301 53.7282 58.3833C55.2106 57.3097 55.9941 55.7472 55.9941 53.8646C55.9941 50.8658 53.5029 48.4127 51.305 46.2486C50.4038 45.361 49.548 44.5183 48.9486 43.72C49.548 42.9216 50.4038 42.0789 51.3051 41.1914C53.5029 39.0272 55.9941 36.5742 55.9941 33.5754C55.9941 31.6929 55.2106 30.1303 53.7282 29.0566C53.3875 28.8099 53.0156 28.5929 52.6161 28.4059H56.6591L57.0105 40.3918C56.5653 40.7835 56.2836 41.3569 56.2836 41.9951C56.2836 42.1145 56.2942 42.2327 56.3139 42.3495C55.7509 42.5511 55.3462 43.0884 55.3462 43.7199C55.3462 44.3516 55.7512 44.8892 56.3146 45.0906C56.2945 45.2077 56.2836 45.326 56.2836 45.4446C56.2836 46.0829 56.5653 46.6562 57.0105 47.048L56.6591 59.0341ZM59.7154 41.9952C59.7154 42.0857 59.7049 42.1752 59.686 42.2634H57.1533C57.1344 42.1752 57.1239 42.0856 57.1239 41.9952C57.1239 41.2808 57.7051 40.6996 58.4196 40.6996C59.1341 40.6996 59.7154 41.2808 59.7154 41.9952ZM58.4197 46.7405C57.7052 46.7405 57.124 46.1593 57.124 45.4448C57.124 45.355 57.1349 45.2655 57.1541 45.1767H59.6852C59.7045 45.2655 59.7154 45.355 59.7154 45.4448C59.7154 46.1593 59.1342 46.7405 58.4197 46.7405ZM60.0365 44.3362H56.8028C56.4631 44.3362 56.1867 44.0597 56.1867 43.72C56.1867 43.3802 56.4631 43.1038 56.8028 43.1038H60.0365C60.3763 43.1038 60.6528 43.3802 60.6528 43.72C60.6528 44.0597 60.3763 44.3362 60.0365 44.3362ZM59.0013 39.9403C58.8163 39.8878 58.6214 39.8592 58.4197 39.8592C58.218 39.8592 58.0231 39.8878 57.838 39.9403L57.4998 28.4059H59.3395L59.0013 39.9403Z" fill="#731717"/>
<path d="M50.8249 53.82C50.5927 53.82 50.4047 53.632 50.4047 53.3998V53.3902C50.4047 53.1581 50.5927 52.97 50.8249 52.97C51.057 52.97 51.2451 53.1581 51.2451 53.3902V53.3998C51.2451 53.632 51.057 53.82 50.8249 53.82Z" fill="#D9985F"/>
<path d="M49.9845 52.5175C49.7524 52.5175 49.5643 52.3295 49.5643 52.0973V52.0877C49.5643 51.8556 49.7524 51.6675 49.9845 51.6675C50.2166 51.6675 50.4047 51.8556 50.4047 52.0877V52.0973C50.4047 52.3295 50.2166 52.5175 49.9845 52.5175Z" fill="#D9985F"/>
<path d="M48.0103 39.9654C47.7782 39.9654 47.5901 39.7773 47.5901 39.5452V39.5356C47.5901 39.3034 47.7782 39.1154 48.0103 39.1154C48.2424 39.1154 48.4305 39.3034 48.4305 39.5356V39.5452C48.4305 39.7773 48.2424 39.9654 48.0103 39.9654Z" fill="#D9985F"/>
<path d="M46.9632 54.915C46.7311 54.915 46.543 54.7269 46.543 54.4948V54.4851C46.543 54.253 46.7311 54.0649 46.9632 54.0649C47.1953 54.0649 47.3834 54.253 47.3834 54.4851V54.4948C47.3834 54.7268 47.1953 54.915 46.9632 54.915Z" fill="#FBF6F6"/>
<path d="M49.5642 40.3906C49.3321 40.3906 49.144 40.2025 49.144 39.9704V39.9607C49.144 39.7286 49.3321 39.5405 49.5642 39.5405C49.7964 39.5405 49.9844 39.7286 49.9844 39.9607V39.9704C49.9844 40.2024 49.7964 40.3906 49.5642 40.3906Z" fill="#FBF6F6"/>
<path d="M45.5371 56.1739C45.305 56.1739 45.1169 55.9858 45.1169 55.7537V55.7441C45.1169 55.5119 45.305 55.3239 45.5371 55.3239C45.7693 55.3239 45.9573 55.5119 45.9573 55.7441V55.7537C45.9573 55.9858 45.7693 56.1739 45.5371 56.1739Z" fill="#D9985F"/>
<path d="M34.9058 55.6822C34.8191 55.6822 34.7324 55.6554 34.6589 55.6019L34.3864 55.4041L34.1139 55.6019C33.9667 55.7089 33.7674 55.7089 33.62 55.6019C33.4727 55.4949 33.4111 55.3052 33.4674 55.132L33.5715 54.8119L33.2991 54.6139C33.1518 54.507 33.0902 54.3173 33.1465 54.1442C33.2027 53.9709 33.3641 53.8538 33.5461 53.8538H33.8828L33.9869 53.5335C34.0431 53.3603 34.2045 53.2432 34.3865 53.2432C34.5685 53.2432 34.7299 53.3604 34.7861 53.5335L34.8901 53.8538H35.2269C35.4089 53.8538 35.5703 53.971 35.6265 54.1442C35.6828 54.3173 35.6212 54.507 35.4739 54.6139L35.2015 54.8119L35.3055 55.132C35.3619 55.3052 35.3003 55.4948 35.153 55.6019C35.0791 55.6554 34.9925 55.6822 34.9058 55.6822Z" fill="#BF2431"/>
<path d="M32.7411 33.1574C32.6545 33.1574 32.5677 33.1307 32.4942 33.0771C32.3469 32.9701 32.2853 32.7806 32.3416 32.6073L32.4455 32.2871L32.1732 32.0892C32.0259 31.9822 31.9643 31.7925 32.0206 31.6194C32.0769 31.4462 32.2382 31.329 32.4202 31.329H32.7569L32.861 31.0087C32.9173 30.8355 33.0786 30.7184 33.2606 30.7184C33.4427 30.7184 33.604 30.8356 33.6602 31.0087L33.7643 31.329H34.101C34.2831 31.329 34.4444 31.4463 34.5006 31.6194C34.557 31.7925 34.4954 31.9822 34.348 32.0892L34.0757 32.2871L34.1796 32.6073C34.2359 32.7806 34.1743 32.9701 34.027 33.0771C33.8798 33.1841 33.6804 33.1841 33.533 33.0771L33.2607 32.8793L32.9883 33.0771C32.9144 33.1307 32.8277 33.1574 32.7411 33.1574Z" fill="#BF2431"/>
<path d="M63.7759 50.0017C63.6684 50.0017 63.5608 49.9607 63.4788 49.8786L63.0616 49.4614L62.6443 49.8786C62.4804 50.0427 62.2141 50.0427 62.0502 49.8786C61.886 49.7146 61.886 49.4485 62.0502 49.2845L62.7645 48.5701C62.9285 48.406 63.1947 48.406 63.3587 48.5701L64.073 49.2845C64.2371 49.4485 64.2371 49.7146 64.073 49.8786C63.991 49.9606 63.8834 50.0017 63.7759 50.0017Z" fill="#D9985F"/>
<path d="M63.4903 46.9081C63.3828 46.9081 63.2752 46.8671 63.1933 46.785L62.776 46.3678L62.3587 46.785C62.1948 46.9491 61.9285 46.9491 61.7646 46.785C61.6004 46.6209 61.6004 46.3549 61.7646 46.1908L62.4789 45.4765C62.6429 45.3124 62.9091 45.3124 63.0731 45.4765L63.7874 46.1908C63.9515 46.3549 63.9515 46.6209 63.7874 46.785C63.7055 46.8671 63.5979 46.9081 63.4903 46.9081Z" fill="#BF2431"/>
<path d="M34.8152 36.4766C34.7077 36.4766 34.6 36.4356 34.5181 36.3535L34.1008 35.9363L33.6836 36.3535C33.5196 36.5176 33.2534 36.5176 33.0894 36.3535C32.9253 36.1894 32.9253 35.9234 33.0894 35.7593L33.8037 35.045C33.9677 34.8808 34.2339 34.8808 34.3979 35.045L35.1122 35.7593C35.2764 35.9234 35.2764 36.1894 35.1122 36.3535C35.0303 36.4356 34.9227 36.4766 34.8152 36.4766Z" fill="#D9985F"/>
<defs>
<filter id="filter0_d" x="0" y="0" width="96" height="96" filterUnits="userSpaceOnUse" color-interpolation-filters="sRGB">
<feFlood flood-opacity="0" result="BackgroundImageFix"/>
<feColorMatrix in="SourceAlpha" type="matrix" values="0 0 0 0 0 0 0 0 0 0 0 0 0 0 0 0 0 0 127 0"/>
<feOffset dy="4"/>
<feGaussianBlur stdDeviation="10"/>
<feColorMatrix type="matrix" values="0 0 0 0 0.45098 0 0 0 0 0.0901961 0 0 0 0 0.0901961 0 0 0 0.1 0"/>
<feBlend mode="normal" in2="BackgroundImageFix" result="effect1_dropShadow"/>
<feBlend mode="normal" in="SourceGraphic" in2="effect1_dropShadow" result="shape"/>
</filter>
</defs>
</svg>
