<svg width="96" height="96" viewBox="0 0 96 96" fill="none" xmlns="http://www.w3.org/2000/svg">
<g filter="url(#filter0_d)">
<circle cx="48" cy="44" r="28" fill="#D9985F"/>
</g>
<path opacity="0.1" d="M62.022 27.6436C61.849 27.592 61.6668 27.5644 61.4772 27.5644L37.6594 27.5635C36.6 27.5635 35.7413 28.4231 35.7413 29.4816V57.8726H32.6198C32.0906 57.8726 31.6607 58.3015 31.6607 58.8308V60.3651C31.6607 61.4244 32.5194 62.2831 33.5779 62.2831H57.3035C58.3619 62.2831 59.2207 61.4244 59.2207 60.366V32.4554H62.4363C62.9655 32.4554 63.3944 32.0264 63.3944 31.4972V29.4816C63.3943 28.6128 62.8154 27.8783 62.022 27.6436Z" fill="#BF2431"/>
<path d="M63.3943 27.3374V29.3531C63.3943 29.8823 62.9654 30.3112 62.4362 30.3112H58.2816V27.3374C58.2816 26.2789 57.4229 25.4202 56.3635 25.4202H61.4771C61.6667 25.4202 61.8489 25.4478 62.022 25.4993C62.8154 25.7341 63.3943 26.4686 63.3943 27.3374Z" fill="#FBF6F6"/>
<path d="M61.1387 25.4198C60.0794 25.4198 59.2207 26.2794 59.2207 27.3379V58.2222C59.2207 59.2807 58.3619 60.1393 57.3035 60.1393H35.7413V27.3378C35.7413 26.2793 36.6 25.4197 37.6594 25.4197H61.1387V25.4198Z" fill="white"/>
<path d="M57.0572 60.139H33.5778C32.5194 60.139 31.6606 59.2803 31.6606 58.221V56.6867C31.6606 56.1575 32.0905 55.7285 32.6197 55.7285H54.181C54.7102 55.7285 55.14 56.1574 55.14 56.6867V58.221C55.14 59.2803 55.9988 60.139 57.0572 60.139Z" fill="#FBF6F6"/>
<path d="M61.477 25H37.6585C36.3695 25 35.3208 26.0487 35.3208 27.3377V41.9721C35.3208 42.2041 35.509 42.3923 35.741 42.3923C35.9731 42.3923 36.1612 42.2041 36.1612 41.9721V27.3377C36.1612 26.5121 36.833 25.8404 37.6585 25.8404H59.3438C59.0044 26.2463 58.8 26.7685 58.8 27.3377V58.2213C58.8 59.0469 58.1283 59.7185 57.3027 59.7185H57.0542C56.2301 59.7168 55.5602 59.0459 55.5602 58.2214V56.6874C55.5602 55.9271 54.9415 55.3085 54.1811 55.3085H36.1612V44.8147C36.1612 44.5826 35.9731 44.3945 35.741 44.3945C35.509 44.3945 35.3208 44.5826 35.3208 44.8147V55.3085H32.6195C31.8592 55.3085 31.2405 55.9271 31.2405 56.6874V58.2214C31.2405 59.5104 32.2893 60.5591 33.5783 60.5591C33.5783 60.5591 57.0586 60.5589 57.0591 60.5589H57.3027C58.5917 60.5589 59.6404 59.5102 59.6404 58.2213V27.3377C59.6404 26.5121 60.3121 25.8404 61.1377 25.8404H61.477C62.3026 25.8404 62.9742 26.5121 62.9742 27.3377V29.3528C62.9742 29.6498 62.7326 29.8914 62.4357 29.8914H62.0945C61.8624 29.8914 61.6743 30.0795 61.6743 30.3116C61.6743 30.5436 61.8624 30.7318 62.0945 30.7318H62.4357C63.1961 30.7318 63.8146 30.1132 63.8146 29.3528V27.3377C63.8147 26.0486 62.766 25 61.477 25ZM32.0809 58.2214V56.6874C32.0809 56.3904 32.3226 56.1489 32.6195 56.1489H54.1811C54.4781 56.1489 54.7198 56.3905 54.7198 56.6874V58.2214C54.7198 58.7905 54.9241 59.3127 55.2634 59.7185L33.5782 59.7187C32.7527 59.7187 32.0809 59.047 32.0809 58.2214Z" fill="#BF2431"/>
<path d="M55.7195 33.9412H39.3087C38.8446 33.9412 38.4683 33.5649 38.4683 33.1008V30.8951C38.4683 30.4309 38.8446 30.0547 39.3087 30.0547H55.7196C56.1838 30.0547 56.56 30.4309 56.56 30.8951V33.1008C56.5599 33.5649 56.1837 33.9412 55.7195 33.9412Z" fill="#D9985F"/>
<path d="M62.9607 58.4781C62.874 58.4781 62.7873 58.4513 62.7137 58.3978L62.4414 58.1999L62.1689 58.3978C62.0217 58.5048 61.8223 58.5048 61.675 58.3978C61.5277 58.2908 61.4661 58.1012 61.5224 57.928L61.6264 57.6078L61.354 57.4098C61.2068 57.3029 61.1452 57.1132 61.2015 56.9401C61.2577 56.7669 61.4191 56.6497 61.6011 56.6497H61.9377L62.0419 56.3294C62.0981 56.1563 62.2595 56.0391 62.4415 56.0391C62.6235 56.0391 62.7849 56.1563 62.8411 56.3294L62.9451 56.6496H63.2819C63.4639 56.6496 63.6253 56.7668 63.6815 56.94C63.7378 57.1131 63.6762 57.3028 63.529 57.4098L63.2565 57.6077L63.3605 57.9279C63.4168 58.1011 63.3552 58.2907 63.2078 58.3977C63.134 58.4513 63.0473 58.4781 62.9607 58.4781Z" fill="#BF2431"/>
<path d="M64.2892 41.7722C64.2026 41.7722 64.1158 41.7454 64.0423 41.6919L63.7698 41.494L63.4974 41.6919C63.3501 41.7989 63.1508 41.7989 63.0034 41.6919C62.8561 41.5849 62.7945 41.3953 62.8509 41.2221L62.9549 40.9019L62.6825 40.704C62.5352 40.597 62.4736 40.4074 62.5299 40.2342C62.5861 40.0611 62.7475 39.9439 62.9295 39.9439H63.2663L63.3703 39.6236C63.4265 39.4505 63.5879 39.3333 63.7699 39.3333C63.9519 39.3333 64.1133 39.4505 64.1695 39.6236L64.2736 39.9439H64.6103C64.7923 39.9439 64.9537 40.0611 65.0099 40.2342C65.0662 40.4074 65.0046 40.597 64.8573 40.704L64.5849 40.9019L64.689 41.2221C64.7453 41.3953 64.6837 41.5849 64.5364 41.6919C64.4626 41.7454 64.3759 41.7722 64.2892 41.7722Z" fill="#D9985F"/>
<path d="M32.6961 29.0855C32.6094 29.0855 32.5227 29.0588 32.4491 29.0052C32.3018 28.8982 32.2402 28.7086 32.2965 28.5354L32.4005 28.2152L32.1281 28.0173C31.9809 27.9103 31.9192 27.7206 31.9755 27.5475C32.0318 27.3744 32.1931 27.2571 32.3751 27.2571H32.7118L32.8158 26.9368C32.872 26.7637 33.0334 26.6465 33.2154 26.6465C33.3976 26.6465 33.5588 26.7637 33.615 26.9368L33.7191 27.257H34.0558C34.2379 27.257 34.3992 27.3743 34.4554 27.5474C34.5117 27.7205 34.4501 27.9102 34.3028 28.0172L34.0304 28.215L34.1344 28.5353C34.1906 28.7084 34.129 28.8981 33.9818 29.0051C33.8346 29.112 33.6351 29.112 33.4878 29.0051L33.2154 28.8071L32.943 29.0051C32.8694 29.0588 32.7827 29.0855 32.6961 29.0855Z" fill="#BF2431"/>
<path d="M62.5674 38.4531C62.4599 38.4531 62.3522 38.4121 62.2703 38.3301L61.853 37.9129L61.4358 38.3301C61.2718 38.4941 61.0056 38.4941 60.8416 38.3301C60.6775 38.1659 60.6775 37.8999 60.8416 37.7358L61.5559 37.0215C61.7199 36.8574 61.9861 36.8574 62.1501 37.0215L62.8644 37.7358C63.0286 37.8999 63.0286 38.166 62.8644 38.3301C62.7825 38.4121 62.6748 38.4531 62.5674 38.4531Z" fill="#BF2431"/>
<path d="M33.6442 41.2263C33.5366 41.2263 33.4291 41.1853 33.347 41.1032L32.9299 40.6861L32.5127 41.1032C32.3486 41.2673 32.0826 41.2673 31.9184 41.1032C31.7543 40.9391 31.7543 40.673 31.9184 40.509L32.6328 39.7947C32.7969 39.6306 33.0629 39.6306 33.227 39.7947L33.9414 40.509C34.1055 40.6731 34.1055 40.9392 33.9414 41.1032C33.8593 41.1853 33.7518 41.2263 33.6442 41.2263Z" fill="#731717"/>
<path d="M50.4214 36.3382H48.8597C48.6276 36.3382 48.4395 36.15 48.4395 35.918C48.4395 35.686 48.6276 35.4978 48.8597 35.4978H50.4214C50.6534 35.4978 50.8416 35.686 50.8416 35.918C50.8416 36.15 50.6534 36.3382 50.4214 36.3382Z" fill="#731717"/>
<path d="M55.927 37.8829H48.8597C48.6276 37.8829 48.4395 37.6947 48.4395 37.4627C48.4395 37.2306 48.6276 37.0425 48.8597 37.0425H55.927C56.159 37.0425 56.3472 37.2306 56.3472 37.4627C56.3472 37.6947 56.159 37.8829 55.927 37.8829Z" fill="#731717"/>
<path d="M55.927 39.428H48.8597C48.6276 39.428 48.4395 39.2399 48.4395 39.0078C48.4395 38.7758 48.6276 38.5876 48.8597 38.5876H55.927C56.159 38.5876 56.3472 38.7758 56.3472 39.0078C56.3472 39.2399 56.159 39.428 55.927 39.428Z" fill="#731717"/>
<path d="M55.927 40.9725H48.8597C48.6276 40.9725 48.4395 40.7843 48.4395 40.5523C48.4395 40.3202 48.6276 40.1321 48.8597 40.1321H55.927C56.159 40.1321 56.3472 40.3202 56.3472 40.5523C56.3472 40.7843 56.159 40.9725 55.927 40.9725Z" fill="#731717"/>
<path d="M40.4233 42.9556H38.8616C38.6296 42.9556 38.4414 42.7675 38.4414 42.5354C38.4414 42.3034 38.6296 42.1152 38.8616 42.1152H40.4233C40.6554 42.1152 40.8435 42.3034 40.8435 42.5354C40.8435 42.7675 40.6554 42.9556 40.4233 42.9556Z" fill="#731717"/>
<path d="M45.9289 44.5003H38.8616C38.6296 44.5003 38.4414 44.3121 38.4414 44.0801C38.4414 43.8481 38.6296 43.6599 38.8616 43.6599H45.9289C46.161 43.6599 46.3491 43.8481 46.3491 44.0801C46.3491 44.3121 46.161 44.5003 45.9289 44.5003Z" fill="#731717"/>
<path d="M45.9289 46.0452H38.8616C38.6296 46.0452 38.4414 45.8571 38.4414 45.625C38.4414 45.393 38.6296 45.2048 38.8616 45.2048H45.9289C46.161 45.2048 46.3491 45.393 46.3491 45.625C46.3491 45.8571 46.161 46.0452 45.9289 46.0452Z" fill="#731717"/>
<path d="M45.9289 47.5899H38.8616C38.6296 47.5899 38.4414 47.4017 38.4414 47.1697C38.4414 46.9377 38.6296 46.7495 38.8616 46.7495H45.9289C46.161 46.7495 46.3491 46.9377 46.3491 47.1697C46.3491 47.4017 46.161 47.5899 45.9289 47.5899Z" fill="#731717"/>
<path d="M45.9019 49.1347H44.3402C44.1081 49.1347 43.92 48.9465 43.92 48.7145C43.92 48.4825 44.1081 48.2943 44.3402 48.2943H45.9019C46.1339 48.2943 46.3221 48.4825 46.3221 48.7145C46.3221 48.9465 46.1339 49.1347 45.9019 49.1347Z" fill="#731717"/>
<path d="M45.9289 50.6793H38.8616C38.6296 50.6793 38.4414 50.4911 38.4414 50.2591C38.4414 50.027 38.6296 49.8389 38.8616 49.8389H45.9289C46.161 49.8389 46.3491 50.027 46.3491 50.2591C46.3491 50.4911 46.161 50.6793 45.9289 50.6793Z" fill="#731717"/>
<path d="M45.9289 52.2243H38.8616C38.6296 52.2243 38.4414 52.0361 38.4414 51.8041C38.4414 51.5721 38.6296 51.3839 38.8616 51.3839H45.9289C46.161 51.3839 46.3491 51.5721 46.3491 51.8041C46.3491 52.0361 46.161 52.2243 45.9289 52.2243Z" fill="#731717"/>
<path d="M45.9289 53.7689H38.8616C38.6296 53.7689 38.4414 53.5807 38.4414 53.3487C38.4414 53.1166 38.6296 52.9285 38.8616 52.9285H45.9289C46.161 52.9285 46.3491 53.1166 46.3491 53.3487C46.3491 53.5807 46.161 53.7689 45.9289 53.7689Z" fill="#731717"/>
<path d="M45.9019 40.9201H38.8885C38.6565 40.9201 38.4683 40.7319 38.4683 40.4999V35.8216C38.4683 35.5895 38.6565 35.4014 38.8885 35.4014H45.9019C46.1339 35.4014 46.3221 35.5895 46.3221 35.8216V40.4999C46.3221 40.732 46.1339 40.9201 45.9019 40.9201Z" fill="#BF2431"/>
<path d="M42.4996 37.6728C42.4996 36.9029 41.8733 36.2766 41.1035 36.2766C40.3337 36.2766 39.7073 36.903 39.7073 37.6728C39.7073 38.0525 39.8601 38.3968 40.1069 38.6487C39.8602 38.9007 39.7073 39.245 39.7073 39.6247C39.7073 39.8567 39.8954 40.0449 40.1275 40.0449C40.3597 40.0449 40.5477 39.8567 40.5477 39.6247C40.5477 39.3183 40.7971 39.0689 41.1035 39.0689C41.4099 39.0689 41.6592 39.3183 41.6592 39.6247C41.6592 39.8567 41.8473 40.0449 42.0794 40.0449C42.3116 40.0449 42.4996 39.8567 42.4996 39.6247C42.4996 39.245 42.3469 38.9007 42.1 38.6487C42.3468 38.3968 42.4996 38.0525 42.4996 37.6728ZM41.1034 37.1169C41.4098 37.1169 41.6592 37.3663 41.6592 37.6727C41.6592 37.9791 41.4098 38.2284 41.1034 38.2284C40.797 38.2284 40.5477 37.9791 40.5477 37.6727C40.5477 37.3663 40.797 37.1169 41.1034 37.1169Z" fill="white"/>
<path d="M44.663 40.0447H43.9589C43.7269 40.0447 43.5387 39.8566 43.5387 39.6245C43.5387 39.3925 43.7269 39.2043 43.9589 39.2043H44.663C44.895 39.2043 45.0832 39.3925 45.0832 39.6245C45.0832 39.8566 44.895 40.0447 44.663 40.0447Z" fill="white"/>
<path d="M44.663 38.6944H43.9589C43.7269 38.6944 43.5387 38.5062 43.5387 38.2742C43.5387 38.0422 43.7269 37.854 43.9589 37.854H44.663C44.895 37.854 45.0832 38.0422 45.0832 38.2742C45.0832 38.5062 44.895 38.6944 44.663 38.6944Z" fill="white"/>
<path d="M55.7192 47.9599H48.7058C48.4738 47.9599 48.2856 47.7717 48.2856 47.5397V42.8614C48.2856 42.6293 48.4738 42.4412 48.7058 42.4412H55.7192C55.9513 42.4412 56.1394 42.6293 56.1394 42.8614V47.5397C56.1394 47.7718 55.9513 47.9599 55.7192 47.9599Z" fill="#BF2431"/>
<path d="M55.7192 53.979H48.7058C48.4738 53.979 48.2856 53.7908 48.2856 53.5588V49.5547C48.2856 49.3227 48.4738 49.1345 48.7058 49.1345H55.7192C55.9513 49.1345 56.1394 49.3227 56.1394 49.5547V53.5588C56.1394 53.7909 55.9513 53.979 55.7192 53.979Z" fill="#D9985F"/>
<path d="M52.317 44.7126C52.317 43.9427 51.6906 43.3164 50.9208 43.3164C50.151 43.3164 49.5247 43.9428 49.5247 44.7126C49.5247 45.0923 49.6774 45.4366 49.9243 45.6885C49.6775 45.9405 49.5247 46.2848 49.5247 46.6645C49.5247 46.8965 49.7127 47.0847 49.9449 47.0847C50.177 47.0847 50.3651 46.8965 50.3651 46.6645C50.3651 46.3581 50.6144 46.1087 50.9208 46.1087C51.2272 46.1087 51.4766 46.3581 51.4766 46.6645C51.4766 46.8965 51.6646 47.0847 51.8968 47.0847C52.1289 47.0847 52.317 46.8965 52.317 46.6645C52.317 46.2848 52.1642 45.9405 51.9174 45.6885C52.1642 45.4366 52.317 45.0923 52.317 44.7126ZM50.9208 44.1567C51.2272 44.1567 51.4766 44.4061 51.4766 44.7125C51.4766 45.0189 51.2272 45.2682 50.9208 45.2682C50.6144 45.2682 50.3651 45.0189 50.3651 44.7125C50.3651 44.4061 50.6143 44.1567 50.9208 44.1567Z" fill="white"/>
<path d="M54.4803 47.0843H53.7762C53.5442 47.0843 53.356 46.8961 53.356 46.6641C53.356 46.4321 53.5442 46.2439 53.7762 46.2439H54.4803C54.7123 46.2439 54.9005 46.4321 54.9005 46.6641C54.9005 46.8961 54.7123 47.0843 54.4803 47.0843Z" fill="white"/>
<path d="M54.4803 45.7342H53.7762C53.5442 45.7342 53.356 45.546 53.356 45.314C53.356 45.082 53.5442 44.8938 53.7762 44.8938H54.4803C54.7123 44.8938 54.9005 45.082 54.9005 45.314C54.9005 45.546 54.7123 45.7342 54.4803 45.7342Z" fill="white"/>
<path d="M56.1397 28.4172C55.9076 28.4172 55.7195 28.229 55.7195 27.997V27.9873C55.7195 27.7553 55.9076 27.5671 56.1397 27.5671C56.3719 27.5671 56.5599 27.7553 56.5599 27.9873V27.997C56.5599 28.2291 56.3719 28.4172 56.1397 28.4172Z" fill="#731717"/>
<path d="M54.7862 28.4172C54.554 28.4172 54.366 28.229 54.366 27.997V27.9873C54.366 27.7553 54.554 27.5671 54.7862 27.5671C55.0183 27.5671 55.2064 27.7553 55.2064 27.9873V27.997C55.2064 28.2291 55.0183 28.4172 54.7862 28.4172Z" fill="#731717"/>
<path d="M53.4325 28.4172C53.2004 28.4172 53.0123 28.229 53.0123 27.997V27.9873C53.0123 27.7553 53.2004 27.5671 53.4325 27.5671C53.6646 27.5671 53.8527 27.7553 53.8527 27.9873V27.997C53.8527 28.2291 53.6646 28.4172 53.4325 28.4172Z" fill="#731717"/>
<path d="M44.7761 28.4105H38.9264C38.6943 28.4105 38.5062 28.2223 38.5062 27.9903C38.5062 27.7582 38.6943 27.5701 38.9264 27.5701H44.7761C45.0082 27.5701 45.1963 27.7582 45.1963 27.9903C45.1963 28.2223 45.0082 28.4105 44.7761 28.4105Z" fill="#731717"/>
<defs>
<filter id="filter0_d" x="0" y="0" width="96" height="96" filterUnits="userSpaceOnUse" color-interpolation-filters="sRGB">
<feFlood flood-opacity="0" result="BackgroundImageFix"/>
<feColorMatrix in="SourceAlpha" type="matrix" values="0 0 0 0 0 0 0 0 0 0 0 0 0 0 0 0 0 0 127 0"/>
<feOffset dy="4"/>
<feGaussianBlur stdDeviation="10"/>
<feColorMatrix type="matrix" values="0 0 0 0 0.45098 0 0 0 0 0.0901961 0 0 0 0 0.0901961 0 0 0 0.1 0"/>
<feBlend mode="normal" in2="BackgroundImageFix" result="effect1_dropShadow"/>
<feBlend mode="normal" in="SourceGraphic" in2="effect1_dropShadow" result="shape"/>
</filter>
</defs>
</svg>
