<svg width="96" height="96" viewBox="0 0 96 96" fill="none" xmlns="http://www.w3.org/2000/svg">
<g filter="url(#filter0_d)">
<circle cx="48" cy="44" r="28" fill="#D9985F"/>
</g>
<path opacity="0.1" d="M51.3036 48.7775V47.6372C53.6395 46.6095 55.4185 44.3006 55.9809 41.4637C56.3014 41.6156 56.6658 41.6902 57.05 41.6622C58.0932 41.5862 58.9395 40.7394 59.0143 39.6962C59.0657 38.9796 58.7615 38.3323 58.2609 37.9107C60.5443 37.1135 62.1831 34.9422 62.1831 32.3868C62.1831 29.1556 59.5637 26.5361 56.3324 26.5361C54.8776 26.5361 53.5478 27.0684 52.5243 27.947C51.3219 27.3972 49.985 27.0904 48.5764 27.0904C43.3273 27.0904 39.0721 31.3456 39.0721 36.5946V37.7732C38.4653 38.1828 38.081 38.8968 38.1383 39.6962C38.2132 40.7394 39.0596 41.5862 40.1027 41.6621C40.487 41.69 40.8513 41.6155 41.1719 41.4637C41.7343 44.3005 43.5132 46.6094 45.8491 47.6371V48.7774C40.4785 49.2794 36.2749 53.7988 36.2749 59.3006V63.1688C36.2749 63.6279 36.647 64 37.1061 64H60.0467C60.5058 64 60.8779 63.6279 60.8779 63.1688V59.3006C60.8778 53.7989 56.6742 49.2795 51.3036 48.7775Z" fill="#731717"/>
<path d="M60.8778 61.8796H36.2749V57.1803C36.2749 51.3424 41.0074 46.61 46.8452 46.61H50.3075C56.1454 46.61 60.8779 51.3424 60.8779 57.1803V61.8796H60.8778Z" fill="#BF2431"/>
<path d="M41.2057 61.8797V55.2326C41.2057 54.8479 40.8939 54.536 40.5092 54.536C40.1245 54.536 39.8126 54.8479 39.8126 55.2326V61.8797H41.2057Z" fill="#731717"/>
<path d="M57.3401 61.8797V55.2326C57.3401 54.8479 57.0282 54.536 56.6435 54.536C56.2588 54.536 55.947 54.8479 55.947 55.2326V61.8797H57.3401Z" fill="#731717"/>
<path d="M51.3036 42.9177V46.9317C51.3036 48.4379 50.0825 49.6589 48.5764 49.6589C47.0702 49.6589 45.8491 48.4379 45.8491 46.9317V42.9177H51.3036Z" fill="#FFAB66"/>
<path d="M51.3036 42.9177V46.9288C50.4499 47.2721 49.5323 47.4583 48.5764 47.4583C47.6204 47.4583 46.7028 47.2721 45.8491 46.9288V42.9177H51.3036Z" fill="#FF9D33"/>
<path d="M58.0806 37.9478V34.4741C58.0806 29.225 53.8254 24.9698 48.5764 24.9698C43.3273 24.9698 39.0721 29.225 39.0721 34.4741V37.9478H58.0806Z" fill="#FF8B00"/>
<path d="M56.8912 39.5475C58.0669 39.5475 59.02 38.5944 59.02 37.4186C59.02 36.2429 58.0669 35.2898 56.8912 35.2898C55.7154 35.2898 54.7623 36.2429 54.7623 37.4186C54.7623 38.5944 55.7154 39.5475 56.8912 39.5475Z" fill="#FFAB66"/>
<path d="M59.0165 37.2974C58.2127 37.713 57.3 37.9483 56.3325 37.9483C55.798 37.9483 55.2793 37.8768 54.7873 37.7413C54.7706 37.6357 54.7623 37.5285 54.7623 37.4188C54.7623 36.2426 55.7157 35.29 56.8911 35.29C58.0265 35.29 58.9533 36.1777 59.0165 37.2974Z" fill="#FF9D33"/>
<path d="M40.2616 39.5473C41.4374 39.5473 42.3905 38.5942 42.3905 37.4185C42.3905 36.2428 41.4374 35.2897 40.2616 35.2897C39.0859 35.2897 38.1328 36.2428 38.1328 37.4185C38.1328 38.5942 39.0859 39.5473 40.2616 39.5473Z" fill="#FFAB66"/>
<path d="M48.5764 46.0938C52.7695 46.0938 56.1687 42.2098 56.1687 37.4186C56.1687 32.6274 52.7695 28.7434 48.5764 28.7434C44.3832 28.7434 40.984 32.6274 40.984 37.4186C40.984 42.2098 44.3832 46.0938 48.5764 46.0938Z" fill="#FFC599"/>
<path d="M56.1688 37.4187C56.1688 37.5957 56.1638 37.7711 56.1546 37.9457C53.006 37.8517 50.4816 35.2683 50.4816 32.0972C50.4816 31.0748 50.7442 30.1139 51.2056 29.2777C54.1032 30.4996 56.1688 33.6832 56.1688 37.4187Z" fill="#FFAB66"/>
<path d="M43.5772 36.7692C43.4915 36.7692 43.4051 36.7428 43.3307 36.688C43.146 36.5516 43.1068 36.2915 43.243 36.1068C43.2771 36.0606 43.5932 35.6469 44.1917 35.3426C44.7509 35.0583 45.668 34.8215 46.8618 35.3081C47.0743 35.3948 47.1764 35.6373 47.0897 35.8499C47.0031 36.0625 46.7606 36.1645 46.5479 36.0779C44.8377 35.3807 43.9209 36.5881 43.9118 36.6004C43.8305 36.7107 43.7047 36.7692 43.5772 36.7692Z" fill="#FF8B00"/>
<path d="M53.5756 36.7693C53.6613 36.7693 53.7478 36.743 53.8221 36.6881C54.0068 36.5518 54.046 36.2916 53.9098 36.1069C53.8757 36.0607 53.5597 35.647 52.9611 35.3427C52.4019 35.0584 51.4848 34.8216 50.2911 35.3083C50.0785 35.3949 49.9764 35.6374 50.0631 35.8501C50.1498 36.0626 50.3922 36.1646 50.6049 36.078C52.3151 35.3808 53.2319 36.5882 53.241 36.6005C53.3224 36.7109 53.4481 36.7693 53.5756 36.7693Z" fill="#FF8B00"/>
<path d="M51.6394 27.9762H45.2098C42.361 27.9762 40.0516 30.2856 40.0516 33.1344C40.0516 35.9832 46.0982 35.1983 51.5243 31.3389C51.5243 31.3389 52.8307 33.1931 56.7976 33.6869V33.1344C56.7976 30.2857 54.4882 27.9762 51.6394 27.9762Z" fill="#FF8B00"/>
<path d="M35.8259 51.5396C35.7195 51.5396 35.6131 51.499 35.5319 51.4178L35.1193 51.0052L34.7067 51.4178C34.5444 51.5801 34.2813 51.5801 34.1189 51.4178C33.9566 51.2555 33.9566 50.9924 34.1189 50.8301L34.8255 50.1236C34.9878 49.9612 35.2509 49.9612 35.4132 50.1236L36.1198 50.8301C36.2821 50.9924 36.2821 51.2555 36.1198 51.4178C36.0386 51.499 35.9322 51.5396 35.8259 51.5396Z" fill="#BF472C"/>
<path d="M56.3325 36.1171C59.5637 36.1171 62.1832 33.4976 62.1832 30.2664C62.1832 27.0351 59.5637 24.4156 56.3325 24.4156C53.1012 24.4156 50.4818 27.0351 50.4818 30.2664C50.4818 33.4976 53.1012 36.1171 56.3325 36.1171Z" fill="#BF472C"/>
<path d="M54.1452 46.8838C53.9303 46.8037 53.6908 46.9129 53.6106 47.128C53.5304 47.3432 53.6397 47.5825 53.8548 47.6627C55.7749 48.3787 57.4178 49.6455 58.6059 51.3262C59.8203 53.0442 60.4622 55.0684 60.4622 57.1801V61.8795C60.4622 62.1091 60.6483 62.2951 60.8778 62.2951C61.1073 62.2951 61.2934 62.1091 61.2934 61.8795V57.1801C61.2934 54.8957 60.5988 52.7055 59.2846 50.8464C57.9997 49.0286 56.2225 47.6584 54.1452 46.8838Z" fill="#731717"/>
<path d="M56.2836 39.8897C56.4812 39.9382 56.6846 39.963 56.8912 39.963C58.2942 39.963 59.4356 38.8215 59.4356 37.4185C59.4356 36.8899 59.2691 36.3759 58.968 35.9494C61.1098 34.9521 62.5988 32.7804 62.5988 30.2663C62.5988 26.8111 59.7877 24 56.3325 24C52.8772 24 50.0661 26.811 50.0661 30.2663C50.0661 30.7493 50.1229 31.2191 50.2268 31.671C46.3113 33.8902 42.3131 33.2741 40.7579 32.8991C40.5347 32.8448 40.3102 32.9825 40.2564 33.2057C40.2026 33.4288 40.3399 33.6533 40.563 33.7071C40.7475 33.7516 40.965 33.7992 41.2106 33.8456C41.0747 34.2056 40.9601 34.5729 40.8671 34.9466C40.67 34.8984 40.4674 34.8739 40.2613 34.8739C39.9916 34.8739 39.7317 34.9165 39.4875 34.9946V34.4739C39.4875 29.4624 43.5646 25.3853 48.5761 25.3853C49.0053 25.3853 49.4397 25.4161 49.8676 25.4771C50.0942 25.5096 50.3052 25.3513 50.3375 25.1241C50.3699 24.897 50.2119 24.6864 49.9846 24.6542C49.5182 24.5878 49.0443 24.5542 48.5761 24.5542C43.1063 24.5542 38.6562 29.0042 38.6562 34.474V35.4459C38.0835 35.9129 37.7168 36.6236 37.7168 37.4184C37.7168 38.8215 38.8582 39.9629 40.2612 39.9629C40.4681 39.9629 40.6713 39.938 40.8688 39.8895C41.5299 42.5432 43.2284 44.7072 45.4332 45.7793V46.2854C40.0399 46.9804 35.8589 51.6007 35.8589 57.1801V61.8796C35.8589 62.1091 36.0451 62.2952 36.2746 62.2952C36.5041 62.2952 36.6902 62.1091 36.6902 61.8796V57.1802C36.6902 52.0576 40.503 47.8096 45.4396 47.1233C45.539 48.7672 46.9074 50.0745 48.576 50.0745C50.309 50.0745 51.7189 48.6646 51.7189 46.9316V45.7795C53.924 44.7073 55.6224 42.5433 56.2836 39.8897ZM58.6044 37.4184C58.6044 38.3631 57.8359 39.1317 56.8912 39.1317C56.7409 39.1317 56.5938 39.1112 56.451 39.0733C56.5383 38.5365 56.5844 37.9835 56.5844 37.4184C56.5844 37.1213 56.571 36.8228 56.5457 36.5271C57.1028 36.5083 57.6417 36.4175 58.1531 36.262C58.4406 36.5763 58.6044 36.9898 58.6044 37.4184ZM56.3325 24.8312C59.3294 24.8312 61.7675 27.2694 61.7675 30.2663C61.7675 33.2633 59.3293 35.7014 56.3325 35.7014C53.3356 35.7014 50.8974 33.2633 50.8974 30.2663C50.8974 27.2694 53.3356 24.8312 56.3325 24.8312ZM40.2616 39.1318C39.3169 39.1318 38.5484 38.3632 38.5484 37.4185C38.5484 36.4739 39.3169 35.7053 40.2616 35.7053C40.4115 35.7053 40.5581 35.7258 40.7005 35.7636C40.6131 36.3045 40.5684 36.8569 40.5684 37.4186C40.5684 37.9834 40.6144 38.5363 40.7016 39.0728C40.5589 39.1106 40.412 39.1318 40.2616 39.1318ZM41.3996 37.4184C41.3996 36.2154 41.6185 35.0594 42.0503 33.9784C42.6148 34.0514 43.2663 34.1032 43.9819 34.1032C45.86 34.1032 48.1733 33.7466 50.4738 32.4863C51.3013 34.6627 53.3071 36.2629 55.7086 36.5013C55.7377 36.8049 55.7531 37.1123 55.7531 37.4184C55.7531 41.9727 52.5336 45.6779 48.5763 45.6779C44.6191 45.6779 41.3996 41.9728 41.3996 37.4184ZM50.888 46.9316C50.888 48.2063 49.8509 49.2433 48.5763 49.2433C47.3018 49.2433 46.2647 48.2063 46.2647 46.9316V46.1226C46.9969 46.3738 47.7729 46.5093 48.5763 46.5093C49.3798 46.5093 50.1557 46.3738 50.888 46.1226V46.9316Z" fill="#731717"/>
<path d="M51.2794 39.1743C50.9911 39.1743 50.7572 38.9405 50.7572 38.6521V38.2504C50.7572 37.9621 50.991 37.7283 51.2794 37.7283C51.5678 37.7283 51.8016 37.962 51.8016 38.2504V38.6521C51.8016 38.9405 51.5678 39.1743 51.2794 39.1743Z" fill="#731717"/>
<path d="M45.8733 39.1744C45.585 39.1744 45.3511 38.9406 45.3511 38.6522V38.2506C45.3511 37.9622 45.5849 37.7284 45.8733 37.7284C46.1617 37.7284 46.3955 37.9621 46.3955 38.2506V38.6522C46.3955 38.9406 46.1617 39.1744 45.8733 39.1744Z" fill="#731717"/>
<path d="M33.7605 55.3756C33.6748 55.3756 33.589 55.3492 33.5162 55.2962L33.2468 55.1006L32.9774 55.2962C32.8317 55.4021 32.6345 55.4021 32.4888 55.2962C32.3432 55.1905 32.2821 55.0029 32.3378 54.8316L32.4407 54.5148L32.1713 54.3191C32.0257 54.2132 31.9647 54.0256 32.0204 53.8544C32.076 53.6831 32.2356 53.5672 32.4156 53.5672H32.7486L32.8515 53.2504C32.9071 53.0791 33.0667 52.9633 33.2468 52.9633C33.4268 52.9633 33.5864 53.0792 33.642 53.2504L33.7449 53.5672H34.0779C34.2579 53.5672 34.4175 53.6832 34.4732 53.8544C34.5288 54.0256 34.4678 54.2132 34.3222 54.3191L34.0528 54.5148L34.1557 54.8316C34.2113 55.0029 34.1504 55.1904 34.0048 55.2962C33.9319 55.3491 33.8462 55.3756 33.7605 55.3756Z" fill="#FF9D33"/>
<path d="M63.5962 36.0585C63.4898 36.0585 63.3835 36.0179 63.3023 35.9367L62.8897 35.5241L62.4771 35.9367C62.3148 36.0991 62.0517 36.0991 61.8893 35.9367C61.727 35.7745 61.727 35.5113 61.8893 35.349L62.5959 34.6425C62.7582 34.4802 63.0213 34.4802 63.1836 34.6425L63.8902 35.349C64.0525 35.5113 64.0525 35.7745 63.8902 35.9367C63.8089 36.0179 63.7026 36.0585 63.5962 36.0585Z" fill="#BF472C"/>
<path d="M62.3663 39.2291C62.2599 39.2291 62.1536 39.1886 62.0724 39.1074L61.6598 38.6948L61.2471 39.1074C61.0848 39.2697 60.8217 39.2697 60.6594 39.1074C60.497 38.9451 60.497 38.6819 60.6594 38.5197L61.3659 37.8132C61.5283 37.6508 61.7913 37.6508 61.9537 37.8132L62.6602 38.5197C62.8225 38.6819 62.8225 38.9451 62.6602 39.1074C62.579 39.1885 62.4727 39.2291 62.3663 39.2291Z" fill="#731717"/>
<path d="M64.11 53.075C64.0243 53.075 63.9385 53.0485 63.8657 52.9956L63.5963 52.7999L63.3269 52.9956C63.1812 53.1014 62.984 53.1014 62.8383 52.9956C62.6926 52.8899 62.6316 52.7022 62.6873 52.5309L62.7902 52.2142L62.5208 52.0184C62.3752 51.9126 62.3142 51.725 62.3699 51.5537C62.4255 51.3824 62.5851 51.2666 62.7651 51.2666H63.0981L63.201 50.9498C63.2566 50.7785 63.4162 50.6626 63.5963 50.6626C63.7763 50.6626 63.9359 50.7786 63.9915 50.9498L64.0944 51.2666H64.4274C64.6074 51.2666 64.767 51.3825 64.8226 51.5537C64.8782 51.725 64.8173 51.9125 64.6717 52.0184L64.4023 52.2142L64.5052 52.5309C64.5608 52.7022 64.4999 52.8898 64.3542 52.9956C64.2814 53.0484 64.1957 53.075 64.11 53.075Z" fill="#731717"/>
<path d="M59.874 30.1908L59.0658 28.8238H59.6515C59.7553 28.8238 59.8443 28.7417 59.8443 28.6461C59.8443 28.5504 59.7553 28.4683 59.6515 28.4683H57.1677C57.0639 28.1266 56.6709 27.9284 56.3002 28.0241C56.0629 28.0856 55.8849 28.2565 55.8182 28.4683H53.3418C53.238 28.4683 53.149 28.5504 53.149 28.6461C53.149 28.7417 53.238 28.8238 53.3418 28.8238H53.9275L53.1193 30.1908C53.0452 30.2181 52.9933 30.2865 53.0007 30.3617C53.0007 30.9973 53.5642 31.5168 54.2538 31.5168C54.9433 31.5168 55.5068 30.9973 55.5068 30.3617C55.5068 30.2865 55.4549 30.225 55.3882 30.1976L54.5726 28.8169H55.833C55.8998 29.0288 56.0777 29.1997 56.315 29.2612V31.8312C55.796 31.9132 55.4178 32.337 55.4178 32.8223C55.4178 32.918 55.5068 33 55.6106 33H57.4123C57.5161 33 57.6051 32.918 57.6051 32.8223C57.6051 32.337 57.227 31.9201 56.708 31.8312V29.268C56.9378 29.2065 57.1232 29.0425 57.1899 28.8238H58.4504L57.6199 30.1908C57.5384 30.2181 57.4865 30.2865 57.4939 30.3617C57.4939 30.9973 58.0574 31.5168 58.7469 31.5168C59.4365 31.5168 60 30.9973 60 30.3617C60 30.2865 59.9555 30.2181 59.874 30.1908ZM54.9433 30.1771H53.5642L54.2538 29.0083L54.9433 30.1771ZM58.0648 30.1771L58.7544 29.0083L59.4439 30.1771H58.0648Z" fill="#731717"/>
<defs>
<filter id="filter0_d" x="0" y="0" width="96" height="96" filterUnits="userSpaceOnUse" color-interpolation-filters="sRGB">
<feFlood flood-opacity="0" result="BackgroundImageFix"/>
<feColorMatrix in="SourceAlpha" type="matrix" values="0 0 0 0 0 0 0 0 0 0 0 0 0 0 0 0 0 0 127 0"/>
<feOffset dy="4"/>
<feGaussianBlur stdDeviation="10"/>
<feColorMatrix type="matrix" values="0 0 0 0 0.45098 0 0 0 0 0.0901961 0 0 0 0 0.0901961 0 0 0 0.1 0"/>
<feBlend mode="normal" in2="BackgroundImageFix" result="effect1_dropShadow"/>
<feBlend mode="normal" in="SourceGraphic" in2="effect1_dropShadow" result="shape"/>
</filter>
</defs>
</svg>
