<svg width="96" height="96" viewBox="0 0 96 96" fill="none" xmlns="http://www.w3.org/2000/svg">
<g filter="url(#filter0_d)">
<circle cx="48" cy="44" r="28" fill="#D9985F"/>
</g>
<path opacity="0.1" d="M66.2657 55.3061L66.8897 53.4508C66.9749 53.1977 66.7865 52.9357 66.5195 52.9357H63.3857V48.2709C63.3857 47.6475 63.0161 47.0826 62.4435 46.8364C62.1338 46.7033 61.8009 46.5749 61.4483 46.4513C59.4572 42.6939 60.4278 38.5044 60.8136 37.194C60.8908 36.9315 60.8266 36.648 60.6425 36.4457L58.446 34.0321C58.2391 33.8048 57.9188 33.7204 57.6264 33.8151C56.7914 34.0855 54.9095 34.5497 52.5701 34.2143C50.7268 33.9501 49.3769 32.9448 48.6818 32.3039C48.3808 32.0265 47.9198 32.0265 47.6189 32.3039C46.9237 32.9448 45.5738 33.9501 43.7305 34.2143C41.3911 34.5497 39.5092 34.0855 38.6743 33.8151C38.3818 33.7205 38.0615 33.8048 37.8547 34.0321L35.6581 36.4457C35.4739 36.648 35.4097 36.9315 35.487 37.194C35.8727 38.5044 36.8434 42.6939 34.8522 46.4513C34.4997 46.5749 34.1668 46.7033 33.8571 46.8364C33.2843 47.0826 32.9148 47.6475 32.9148 48.2709V52.9357H29.7811C29.514 52.9357 29.3257 53.1977 29.4108 53.4508L30.0348 55.3061L29.4108 57.1613C29.3257 57.4144 29.514 57.6765 29.7811 57.6765H35.2623C36.192 57.6765 37.0164 57.079 37.3057 56.1955L37.4708 55.6915C39.0989 56.7452 41.2657 57.4682 43.9418 57.6257C44.7175 57.6713 45.4785 57.8581 46.1801 58.1922L47.8145 58.9704C48.027 59.0715 48.2737 59.0715 48.4862 58.9704L50.1206 58.1922C50.8222 57.8581 51.5832 57.6713 52.3589 57.6257C55.035 57.4682 57.2018 56.7452 58.8299 55.6915L58.995 56.1955C59.2843 57.079 60.1087 57.6765 61.0384 57.6765H66.5196C66.7867 57.6765 66.975 57.4144 66.8899 57.1613L66.2657 55.3061Z" fill="#731717"/>
<path d="M35.2623 55.6834H29.7811C29.514 55.6834 29.3257 55.4214 29.4108 55.1683L30.0348 53.313L29.4108 51.4578C29.3257 51.2047 29.514 50.9426 29.7811 50.9426H38.3734L37.3057 54.2025C37.0164 55.086 36.192 55.6834 35.2623 55.6834Z" fill="#BF472C"/>
<path d="M61.0382 55.6834H66.5195C66.7865 55.6834 66.9749 55.4214 66.8897 55.1683L66.2657 53.313L66.8897 51.4578C66.9749 51.2047 66.7865 50.9426 66.5195 50.9426H57.9271L58.9948 54.2025C59.2842 55.086 60.1085 55.6834 61.0382 55.6834Z" fill="#BF472C"/>
<path d="M32.9148 51.1841L36.3355 52.6969L36.109 49.6013C36.109 49.6013 33.8861 50.0544 32.9148 51.1841Z" fill="#BF472C"/>
<path d="M63.3857 51.1841L59.965 52.6969L60.1915 49.6013C60.1915 49.6013 62.4144 50.0544 63.3857 51.1841Z" fill="#BF472C"/>
<path d="M61.6007 44.7358C59.4083 40.9096 60.4183 36.5437 60.8135 35.2009C60.8908 34.9385 60.8266 34.6549 60.6424 34.4526L58.446 32.0391C58.2391 31.8117 57.9188 31.7274 57.6263 31.8221C56.7914 32.0925 54.9095 32.5566 52.5701 32.2212C50.7268 31.957 49.3769 30.9517 48.6817 30.3108C48.3808 30.0334 47.9198 30.0334 47.6188 30.3108C46.9237 30.9517 45.5738 31.957 43.7305 32.2212C41.391 32.5566 39.5092 32.0925 38.6742 31.8221C38.3818 31.7274 38.0615 31.8117 37.8546 32.0391L35.6581 34.4526C35.4739 34.655 35.4097 34.9385 35.487 35.2009C35.8822 36.5437 36.8922 40.9096 34.6998 44.7358C32.1808 49.1319 35.5791 55.1404 43.9417 55.6326C44.7174 55.6783 45.4784 55.8651 46.18 56.1991L47.8144 56.9773C48.0269 57.0785 48.2736 57.0785 48.4861 56.9773L50.1205 56.1991C50.8221 55.8651 51.5831 55.6783 52.3588 55.6326C60.7214 55.1405 64.1196 49.1319 61.6007 44.7358Z" fill="#731717"/>
<path d="M60.9635 51.7741C58.6291 51.0241 55.501 50.4812 51.9565 50.2523C51.087 51.4046 49.7057 52.1499 48.1502 52.1499C46.5948 52.1499 45.2135 51.4046 44.344 50.2523C40.7995 50.4812 37.6713 51.0241 35.337 51.7741C34.0573 50.1359 33.6096 48.1874 34.0518 46.3562C36.4768 45.357 40.1698 44.6296 44.4643 44.3601C45.3385 43.2952 46.6651 42.6163 48.1502 42.6163C49.6354 42.6163 50.962 43.2952 51.8362 44.3601C56.1307 44.6296 59.8237 45.357 62.2487 46.3562C62.6909 48.1874 62.2432 50.1359 60.9635 51.7741Z" fill="#731717"/>
<path d="M47.0197 54.4357C46.0999 53.9977 45.103 53.7445 44.0564 53.6828C40.4448 53.4703 37.5777 52.0292 36.387 49.8279C35.6498 48.4652 35.6525 47.0017 36.3945 45.7068C37.5109 43.7584 38.0567 41.5038 38.0167 39.0057C37.9941 37.5952 37.7838 36.3642 37.5813 35.4921C37.5523 35.3669 37.5863 35.2357 37.6728 35.1406L38.6537 34.0628C38.749 33.9581 38.8929 33.9133 39.0309 33.9455C39.8407 34.1343 40.8773 34.2915 42.084 34.2915C42.7269 34.2915 43.3741 34.2454 44.0077 34.1546C45.6568 33.9181 46.9888 33.2217 47.9247 32.5653C48.0605 32.4699 48.2402 32.4699 48.376 32.5653C49.3119 33.2216 50.6439 33.9181 52.293 34.1546C52.9268 34.2455 53.574 34.2915 54.2168 34.2915C55.4237 34.2915 56.4601 34.1343 57.2699 33.9455C57.4078 33.9133 57.5517 33.9581 57.6471 34.0628L58.628 35.1406C58.7145 35.2357 58.7485 35.3669 58.7194 35.4921C58.517 36.3644 58.3067 37.5953 58.2841 39.0057C58.2441 41.5038 58.7898 43.7584 59.9063 45.7068C60.6483 47.0016 60.6509 48.4652 59.9137 49.8279C58.723 52.0292 55.8559 53.4703 52.2444 53.6828C51.1978 53.7445 50.2009 53.9977 49.2811 54.4357L48.3185 54.8941C48.2123 54.9447 48.0889 54.9447 47.9827 54.8941L47.0197 54.4357Z" fill="white"/>
<path d="M59.9135 49.828C59.644 50.3273 59.2878 50.7874 58.8557 51.2023C56.8698 50.7484 54.5221 50.4179 51.9565 50.2523C51.087 51.4046 49.7057 52.1499 48.1503 52.1499C46.5948 52.1499 45.2136 51.4046 44.344 50.2523C41.7784 50.4179 39.4307 50.7484 37.4448 51.2023C37.0128 50.7874 36.6565 50.3273 36.387 49.828C35.6503 48.4655 35.6526 47.0015 36.3948 45.707C36.4237 45.657 36.4518 45.607 36.4792 45.5562C38.6807 44.9718 41.4214 44.5507 44.4643 44.3601C45.3386 43.2952 46.6651 42.6163 48.1503 42.6163C49.6354 42.6163 50.962 43.2952 51.8362 44.3601C54.8792 44.5507 57.6198 44.9718 59.8214 45.5562C59.8487 45.607 59.8768 45.657 59.9057 45.707C60.6479 47.0015 60.6503 48.4655 59.9135 49.828Z" fill="white"/>
<path d="M42.7448 29.2673C42.6642 29.2673 42.5836 29.2425 42.5152 29.1927L42.262 29.0087L42.0088 29.1927C41.8719 29.2922 41.6865 29.2922 41.5495 29.1927C41.4127 29.0933 41.3553 28.917 41.4077 28.756L41.5044 28.4583L41.2512 28.2743C41.1143 28.1748 41.057 27.9985 41.1093 27.8376C41.1617 27.6766 41.3116 27.5677 41.4808 27.5677H41.7938L41.8905 27.2699C41.9428 27.109 42.0928 27 42.262 27C42.4312 27 42.5812 27.109 42.6335 27.2699L42.7302 27.5677H43.0431C43.2124 27.5677 43.3624 27.6766 43.4146 27.8376C43.4669 27.9985 43.4096 28.1748 43.2728 28.2743L43.0195 28.4583L43.1163 28.756C43.1685 28.917 43.1113 29.0933 42.9744 29.1927C42.906 29.2424 42.8253 29.2673 42.7448 29.2673Z" fill="#BF472C"/>
<path d="M38.8563 59.3387C38.7757 59.3387 38.6951 59.3138 38.6266 59.2641L38.3734 59.0801L38.1202 59.2641C37.9832 59.3634 37.7979 59.3635 37.6609 59.2641C37.5241 59.1646 37.4667 58.9883 37.5191 58.8273L37.6158 58.5297L37.3626 58.3457C37.2257 58.2463 37.1684 58.0699 37.2207 57.909C37.273 57.7481 37.423 57.6391 37.5922 57.6391H37.9052L38.0019 57.3413C38.0541 57.1804 38.2041 57.0714 38.3734 57.0714C38.5427 57.0714 38.6926 57.1804 38.7448 57.3413L38.8416 57.639H39.1546C39.3238 57.639 39.4738 57.748 39.5261 57.9089C39.5784 58.0698 39.5211 58.2462 39.3842 58.3456L39.1309 58.5296L39.2277 58.8273C39.2799 58.9882 39.2227 59.1645 39.0858 59.264C39.0174 59.3138 38.9368 59.3387 38.8563 59.3387Z" fill="#731717"/>
<path d="M42.4653 60.1636C42.3653 60.1636 42.2653 60.1255 42.189 60.0492L41.8012 59.6614L41.4134 60.0492C41.2608 60.2017 41.0135 60.2017 40.861 60.0492C40.7084 59.8967 40.7084 59.6493 40.861 59.4968L41.525 58.8328C41.6776 58.6803 41.9249 58.6803 42.0774 58.8328L42.7415 59.4968C42.8941 59.6494 42.8941 59.8967 42.7415 60.0492C42.6652 60.1255 42.5653 60.1636 42.4653 60.1636Z" fill="#BF2431"/>
<path d="M63.8597 39.9926C63.7597 39.9926 63.6598 39.9545 63.5834 39.8782L63.1956 39.4904L62.8078 39.8782C62.6552 40.0307 62.408 40.0307 62.2554 39.8782C62.1028 39.7256 62.1028 39.4783 62.2554 39.3258L62.9195 38.6617C63.072 38.5092 63.3193 38.5092 63.4719 38.6617L64.1359 39.3258C64.2885 39.4784 64.2885 39.7257 64.1359 39.8782C64.0596 39.9545 63.9597 39.9926 63.8597 39.9926Z" fill="#731717"/>
<path d="M65.0395 42.7106C64.9395 42.7106 64.8396 42.6725 64.7633 42.5962L64.3755 42.2084L63.9877 42.5962C63.8351 42.7487 63.5878 42.7487 63.4352 42.5962C63.2827 42.4437 63.2827 42.1963 63.4352 42.0438L64.0993 41.3798C64.2519 41.2273 64.4991 41.2273 64.6517 41.3798L65.3158 42.0438C65.4684 42.1964 65.4684 42.4437 65.3158 42.5962C65.2395 42.6725 65.1395 42.7106 65.0395 42.7106Z" fill="#BF472C"/>
<path d="M32.9148 51.1841C35.7679 49.6108 41.5192 48.5356 48.1503 48.5356C54.7813 48.5356 60.5327 49.6108 63.3857 51.1841V46.2778C63.3857 45.6544 63.0161 45.0895 62.4435 44.8433C59.372 43.5225 54.1173 42.6519 48.1503 42.6519C42.1832 42.6519 36.9285 43.5226 33.8571 44.8433C33.2843 45.0895 32.9148 45.6544 32.9148 46.2778V51.1841Z" fill="#D9985F"/>
<path d="M48.1502 50.5554C50.7829 50.5554 52.9171 48.4212 52.9171 45.7885C52.9171 43.1558 50.7829 41.0216 48.1502 41.0216C45.5176 41.0216 43.3834 43.1558 43.3834 45.7885C43.3834 48.4212 45.5176 50.5554 48.1502 50.5554Z" fill="#BF2431"/>
<path d="M66.6778 53.313L67.2599 51.5823C67.3399 51.3446 67.3002 51.081 67.1538 50.8773C67.0074 50.6736 66.7702 50.552 66.5195 50.552H63.7763V46.2779C63.7763 45.4963 63.3137 44.7924 62.5977 44.4845C62.3222 44.366 62.0302 44.2518 61.7244 44.1414C59.8821 40.5229 60.8468 36.4712 61.1882 35.3113C61.3034 34.9202 61.2049 34.4904 60.9313 34.1897L58.7349 31.7761C58.4258 31.4365 57.9435 31.3087 57.506 31.4504C56.6396 31.731 54.8534 32.1539 52.6255 31.8346C50.8589 31.5813 49.5622 30.5912 48.9465 30.0236C48.4926 29.6053 47.8081 29.6052 47.3541 30.0236C46.7384 30.5913 45.4417 31.5813 43.6751 31.8346C41.4473 32.1539 39.661 31.731 38.7945 31.4504C38.3568 31.3087 37.8747 31.4366 37.5657 31.7761L35.3692 34.1897C35.0956 34.4904 34.9971 34.9202 35.1123 35.3112C35.4145 36.3381 36.0462 39.0358 35.3851 41.9014C35.3366 42.1117 35.4677 42.3214 35.6779 42.3699C35.8884 42.4183 36.0978 42.2872 36.1463 42.0771C36.849 39.0312 36.1814 36.1765 35.8617 35.0905C35.8225 34.9574 35.8544 34.8172 35.947 34.7155L38.1435 32.3019C38.2464 32.1887 38.4074 32.1461 38.5539 32.1936C39.4847 32.495 41.4021 32.9497 43.786 32.6078C45.7615 32.3246 47.2013 31.227 47.8837 30.5979C48.0356 30.4578 48.265 30.4578 48.417 30.5979C49.0994 31.227 50.5392 32.3246 52.5147 32.6078C54.8984 32.9496 56.8159 32.495 57.7467 32.1936C57.8931 32.1464 58.0543 32.1888 58.1572 32.3019L60.3537 34.7155C60.4463 34.8173 60.4781 34.9575 60.4389 35.0907C60.0982 36.2482 59.1728 40.1236 60.7085 43.806C58.3688 43.0993 55.3674 42.6048 52.0213 42.3858C51.0755 41.3111 49.6913 40.6309 48.1503 40.6309C46.6094 40.6309 45.2252 41.311 44.2793 42.3858C39.9467 42.6694 36.191 43.4146 33.7028 44.4845C32.9868 44.7924 32.5242 45.4963 32.5242 46.2779V50.552H29.781C29.5302 50.552 29.293 50.6736 29.1467 50.8773C29.0003 51.081 28.9606 51.3446 29.0406 51.5823L29.6227 53.3131L29.0406 55.0438C28.9606 55.2816 29.0003 55.5451 29.1467 55.7489C29.2931 55.9525 29.5303 56.0742 29.781 56.0742H35.2623C36.3637 56.0742 37.3341 55.3709 37.6769 54.3242L37.6879 54.2905C37.6988 54.2968 37.7092 54.3035 37.7202 54.3098C39.4492 55.3061 41.5347 55.8825 43.9187 56.0227C44.6622 56.0664 45.3665 56.2445 46.012 56.5519L47.6463 57.3301C47.8064 57.4064 47.9783 57.4445 48.1502 57.4445C48.322 57.4445 48.4939 57.4064 48.6539 57.3301L50.2883 56.5519C50.9339 56.2445 51.6382 56.0664 52.3817 56.0227C54.7657 55.8825 56.8512 55.3061 58.5802 54.3097C58.5911 54.3035 58.6016 54.2968 58.6124 54.2905L58.6234 54.3242C58.9663 55.3709 59.9366 56.0742 61.0381 56.0742C61.2538 56.0742 61.4287 55.8993 61.4287 55.6836C61.4287 55.4678 61.2538 55.2929 61.0381 55.2929C60.2753 55.2929 59.6033 54.8059 59.3659 54.0811L59.2928 53.8582C59.7197 53.5632 60.1139 53.2425 60.4714 52.8985C60.4811 52.895 60.4909 52.8917 60.5005 52.8874L63.5436 51.5416C63.6392 51.4993 63.7088 51.423 63.7459 51.3334H66.5193L65.8953 53.1887C65.8681 53.2695 65.8681 53.3569 65.8953 53.4378L66.5193 55.293H63.6807C63.465 55.293 63.2901 55.4679 63.2901 55.6836C63.2901 55.8993 63.465 56.0743 63.6807 56.0743H66.5195C66.7702 56.0743 67.0074 55.9526 67.1538 55.7489C67.3002 55.5453 67.3399 55.2818 67.2599 55.044L66.6778 53.313ZM62.4654 51.1641L61.6138 51.5407C61.7418 51.3491 61.8601 51.153 61.9688 50.9529C62.1404 51.0219 62.306 51.0923 62.4654 51.1641ZM62.2891 45.2021C62.7181 45.3865 62.9952 45.8088 62.9952 46.2779V50.5471C60.6604 49.4454 56.9618 48.6457 52.6445 48.3143C53.066 47.5671 53.3078 46.7057 53.3078 45.7885C53.3078 44.8502 53.0547 43.9704 52.6151 43.2116C56.5866 43.5182 60.0035 44.2193 62.2891 45.2021ZM48.1502 41.4122C50.5633 41.4122 52.5265 43.3754 52.5265 45.7885C52.5265 48.2015 50.5633 50.1647 48.1502 50.1647C45.7372 50.1647 43.774 48.2015 43.774 45.7885C43.774 43.3754 45.7372 41.4122 48.1502 41.4122ZM33.3054 46.2779C33.3054 45.8089 33.5825 45.3866 34.0114 45.2021C36.297 44.2193 39.714 43.5182 43.6856 43.2116C43.2459 43.9704 42.9928 44.8502 42.9928 45.7885C42.9928 46.7057 43.2346 47.5671 43.6562 48.3143C39.3386 48.6458 35.6405 49.4451 33.3055 50.5471V46.2779H33.3054ZM34.3313 50.952C34.4401 51.1524 34.5585 51.3488 34.6867 51.5407L33.8339 51.1636C33.9935 51.0917 34.1593 51.0211 34.3313 50.952ZM36.9345 54.0809C36.697 54.8057 36.025 55.2929 35.2623 55.2929H29.781L30.405 53.4376C30.4322 53.3568 30.4322 53.2694 30.405 53.1886L29.781 51.3332H32.5546C32.5916 51.4229 32.6611 51.4992 32.7568 51.5414L35.8322 52.9015C36.1888 53.2444 36.582 53.564 37.0076 53.858L36.9345 54.0809ZM52.3359 55.2427C51.4913 55.2924 50.6895 55.4955 49.9526 55.8464L48.3182 56.6246C48.2116 56.6754 48.0892 56.6755 47.9824 56.6246L46.3481 55.8464C45.6111 55.4955 44.8092 55.2924 43.9648 55.2427C39.844 55.0002 36.5515 53.3014 35.0717 50.6765C37.3817 49.8782 40.559 49.3073 44.1667 49.0604C45.1135 50.2109 46.5476 50.946 48.1503 50.946C49.7531 50.946 51.1874 50.211 52.134 49.0604C55.7419 49.3073 58.9188 49.8787 61.2286 50.6772C59.7485 53.3017 56.4563 55.0002 52.3359 55.2427Z" fill="#731717"/>
<path d="M48.4276 42.8534L49.0154 44.6624H50.9175C51.2 44.6624 51.3174 45.0239 51.0889 45.1899L49.5501 46.308L50.1379 48.117C50.2252 48.3857 49.9177 48.6091 49.6891 48.4431L48.1502 47.3249L46.6114 48.443C46.3829 48.609 46.0754 48.3856 46.1627 48.117L46.7505 46.3079L45.2116 45.1899C44.9831 45.0238 45.1005 44.6624 45.383 44.6624H47.2852L47.873 42.8533C47.9602 42.5847 48.3402 42.5847 48.4276 42.8534Z" fill="white"/>
<path d="M48.2968 35.3412L48.6075 36.2971H49.6126C49.7619 36.2971 49.8239 36.4881 49.7032 36.5759L48.89 37.1667L49.2006 38.1226C49.2467 38.2646 49.0843 38.3826 48.9635 38.2949L48.1503 37.7042L47.3371 38.2949C47.2163 38.3827 47.0538 38.2646 47.1 38.1227L47.4106 37.1667L46.5974 36.576C46.4766 36.4882 46.5387 36.2972 46.6879 36.2972H47.6931L48.0037 35.3413C48.0499 35.1992 48.2507 35.1992 48.2968 35.3412Z" fill="#BF472C"/>
<path d="M53.0665 36.6765L53.3771 37.6325H54.3823C54.5316 37.6325 54.5936 37.8235 54.4728 37.9112L53.6596 38.502L53.9702 39.4579C54.0163 39.5999 53.8539 39.7179 53.7331 39.6302L52.9199 39.0394L52.1067 39.6302C51.9859 39.7179 51.8234 39.5999 51.8696 39.4579L52.1802 38.502L51.367 37.9112C51.2463 37.8235 51.3084 37.6325 51.4576 37.6325H52.4627L52.7734 36.6765C52.8195 36.5346 53.0204 36.5346 53.0665 36.6765Z" fill="#D9985F"/>
<path d="M43.5271 36.6767L43.8377 37.6326H44.8429C44.9922 37.6326 45.0542 37.8236 44.9335 37.9113L44.1202 38.5021L44.4309 39.4581C44.477 39.6 44.3145 39.7181 44.1938 39.6303L43.3806 39.0395L42.5674 39.6303C42.4466 39.7181 42.2841 39.6 42.3302 39.4581L42.6409 38.5021L41.8277 37.9113C41.7069 37.8236 41.769 37.6326 41.9182 37.6326H42.9234L43.234 36.6767C43.2801 36.5347 43.481 36.5347 43.5271 36.6767Z" fill="#D9985F"/>
<defs>
<filter id="filter0_d" x="0" y="0" width="96" height="96" filterUnits="userSpaceOnUse" color-interpolation-filters="sRGB">
<feFlood flood-opacity="0" result="BackgroundImageFix"/>
<feColorMatrix in="SourceAlpha" type="matrix" values="0 0 0 0 0 0 0 0 0 0 0 0 0 0 0 0 0 0 127 0"/>
<feOffset dy="4"/>
<feGaussianBlur stdDeviation="10"/>
<feColorMatrix type="matrix" values="0 0 0 0 0.45098 0 0 0 0 0.0901961 0 0 0 0 0.0901961 0 0 0 0.1 0"/>
<feBlend mode="normal" in2="BackgroundImageFix" result="effect1_dropShadow"/>
<feBlend mode="normal" in="SourceGraphic" in2="effect1_dropShadow" result="shape"/>
</filter>
</defs>
</svg>
