<svg width="28" height="28" viewBox="0 0 28 28" fill="none" xmlns="http://www.w3.org/2000/svg">
<path d="M15.3803 15.3803H12.6197V6.96714H15.3803V15.3803ZM15.3803 21.0329H12.6197V18.2066H15.3803V21.0329ZM14 0C12.1596 0 10.3631 0.350548 8.61033 1.05164C6.90141 1.75274 5.38967 2.76056 4.07512 4.07512C2.76056 5.38967 1.75274 6.92332 1.05164 8.67606C0.350548 10.385 0 12.1596 0 14C0 15.8404 0.350548 17.6369 1.05164 19.3897C1.75274 21.0986 2.76056 22.6103 4.07512 23.9249C5.38967 25.2394 6.90141 26.2473 8.61033 26.9484C10.3631 27.6495 12.1596 28 14 28C15.8404 28 17.615 27.6495 19.3239 26.9484C21.0767 26.2473 22.6103 25.2394 23.9249 23.9249C25.2394 22.6103 26.2473 21.0986 26.9484 19.3897C27.6495 17.6369 28 15.8404 28 14C28 12.1596 27.6495 10.385 26.9484 8.67606C26.2473 6.92332 25.2394 5.38967 23.9249 4.07512C22.6103 2.76056 21.0767 1.75274 19.3239 1.05164C17.615 0.350548 15.8404 0 14 0Z" fill="white"/>
</svg>
