<svg width="129" height="33" viewBox="0 0 129 33" fill="none" xmlns="http://www.w3.org/2000/svg">
<path d="M77.9797 5.60214L76.101 2.10648H77.4626C77.7039 2.10648 77.9108 1.89674 77.9108 1.65205C77.9108 1.40735 77.7039 1.19761 77.4626 1.19761H71.6885C71.4471 0.323698 70.5336 -0.183173 69.6718 0.0615234C69.1202 0.218828 68.7066 0.655785 68.5514 1.19761H62.7945C62.5532 1.19761 62.3464 1.40735 62.3464 1.65205C62.3464 1.89674 62.5532 2.10648 62.7945 2.10648H64.1562L62.2774 5.60214C62.1051 5.67205 61.9844 5.84684 62.0016 6.0391C62.0016 7.66458 63.3116 8.99293 64.9146 8.99293C66.5176 8.99293 67.8275 7.66458 67.8275 6.0391C67.8275 5.84684 67.7069 5.68953 67.5517 5.61962L65.6557 2.089H68.5859C68.741 2.63083 69.1547 3.06779 69.7063 3.22509V9.79693C68.4997 10.0067 67.6207 11.0903 67.6207 12.3313C67.6207 12.576 67.8275 12.7857 68.0688 12.7857H72.2572C72.4986 12.7857 72.7054 12.576 72.7054 12.3313C72.7054 11.0903 71.8263 10.0241 70.6198 9.79693V3.24257C71.1541 3.08527 71.585 2.66579 71.7402 2.10648H74.6703L72.7399 5.60214C72.5503 5.67205 72.4296 5.84684 72.4468 6.0391C72.4468 7.66458 73.7568 8.99293 75.3598 8.99293C76.9628 8.99293 78.2727 7.66458 78.2727 6.0391C78.2727 5.84684 78.1693 5.67205 77.9797 5.60214ZM66.5176 5.56718H63.3116L64.9146 2.5784L66.5176 5.56718ZM73.774 5.56718L75.377 2.5784L76.98 5.56718H73.774Z" fill="#731717"/>
<path d="M10.8493 9C14.4371 9 17.1924 9.86643 19.1155 11.5993C21.0385 13.3032 22 15.8881 22 19.3538V32.6534H15.7143V29.7509C14.4514 31.917 12.0978 33 8.65362 33C6.8741 33 5.3242 32.6968 4.00391 32.0903C2.71233 31.4838 1.72211 30.6462 1.03327 29.5776C0.344423 28.509 0 27.296 0 25.9386C0 23.7726 0.803653 22.0686 2.41096 20.8267C4.04697 19.5848 6.55838 18.9639 9.94521 18.9639H15.2838C15.2838 17.491 14.8389 16.3646 13.9491 15.5848C13.0594 14.7762 11.7247 14.3718 9.94521 14.3718C8.71102 14.3718 7.49119 14.574 6.28571 14.9783C5.10894 15.3538 4.10437 15.8736 3.27202 16.5379L0.861057 11.8159C2.12394 10.9206 3.63079 10.2274 5.3816 9.73646C7.16112 9.24549 8.98369 9 10.8493 9ZM10.3327 28.4513C11.4808 28.4513 12.4997 28.1913 13.3894 27.6715C14.2792 27.1227 14.9106 26.3285 15.2838 25.2888V22.9061H10.6771C7.92172 22.9061 6.54403 23.8159 6.54403 25.6354C6.54403 26.5018 6.8741 27.1949 7.53425 27.7148C8.22309 28.2058 9.1559 28.4513 10.3327 28.4513Z" fill="#BF2431"/>
<path d="M39.6764 33C37.6676 33 35.8143 32.6322 34.1167 31.8966C32.4474 31.1326 31.0752 30.0575 30 28.6711L33.8196 24.0875C35.4324 26.2661 37.2714 27.3554 39.3369 27.3554C42.1379 27.3554 43.5385 25.7144 43.5385 22.4324V8.29973H33.0981V2.78249H50.3714V22.0504C50.3714 25.7003 49.466 28.4447 47.6552 30.2838C45.8444 32.0946 43.1848 33 39.6764 33Z" fill="#731717"/>
<path d="M81.8203 9.65782V32.4907H75.5391V29.7745C74.662 30.7648 73.6152 31.5287 72.3985 32.0663C71.1819 32.5756 69.8663 32.8302 68.4516 32.8302C65.4525 32.8302 63.0758 31.9673 61.3216 30.2414C59.5674 28.5155 58.6903 25.9549 58.6903 22.5597V9.65782H65.311V21.5836C65.311 25.2617 66.853 27.1008 69.937 27.1008C71.5214 27.1008 72.7947 26.5915 73.7566 25.5729C74.7186 24.5261 75.1996 22.9841 75.1996 20.947V9.65782H81.8203Z" fill="#731717"/>
<path d="M113.333 1V32.4907H107.01V29.8594C105.369 31.84 102.992 32.8302 99.8796 32.8302C97.7293 32.8302 95.7771 32.3492 94.0229 31.3873C92.297 30.4253 90.9389 29.0531 89.9486 27.2706C88.9583 25.4881 88.4632 23.4226 88.4632 21.0743C88.4632 18.7259 88.9583 16.6605 89.9486 14.878C90.9389 13.0955 92.297 11.7233 94.0229 10.7613C95.7771 9.79929 97.7293 9.3183 99.8796 9.3183C102.794 9.3183 105.072 10.2378 106.713 12.0769V1H113.333ZM101.026 27.3979C102.695 27.3979 104.081 26.832 105.185 25.7003C106.288 24.5402 106.84 22.9982 106.84 21.0743C106.84 19.1503 106.288 17.6225 105.185 16.4907C104.081 15.3307 102.695 14.7507 101.026 14.7507C99.3279 14.7507 97.9274 15.3307 96.8239 16.4907C95.7205 17.6225 95.1688 19.1503 95.1688 21.0743C95.1688 22.9982 95.7205 24.5402 96.8239 25.7003C97.9274 26.832 99.3279 27.3979 101.026 27.3979Z" fill="#731717"/>
<path d="M124.087 32.8302C122.927 32.8302 121.951 32.4341 121.158 31.6419C120.366 30.8497 119.97 29.8594 119.97 28.6711C119.97 27.4545 120.366 26.4783 121.158 25.7427C121.951 24.9788 122.927 24.5968 124.087 24.5968C125.247 24.5968 126.223 24.9788 127.015 25.7427C127.807 26.4783 128.204 27.4545 128.204 28.6711C128.204 29.8594 127.807 30.8497 127.015 31.6419C126.223 32.4341 125.247 32.8302 124.087 32.8302Z" fill="#731717"/>
</svg>
