<svg width="22" height="20" viewBox="0 0 22 20" fill="none" xmlns="http://www.w3.org/2000/svg">
<path d="M17.3099 0.25H4.69014V4.56641H17.3099V0.25ZM18.3451 10C18.0493 10 17.8028 9.89844 17.6056 9.69531C17.4084 9.49219 17.3099 9.23828 17.3099 8.93359C17.3099 8.62891 17.4084 8.375 17.6056 8.17188C17.8028 7.9349 18.0493 7.81641 18.3451 7.81641C18.6408 7.81641 18.8873 7.9349 19.0845 8.17188C19.3146 8.375 19.4296 8.62891 19.4296 8.93359C19.4296 9.23828 19.3146 9.49219 19.0845 9.69531C18.8873 9.89844 18.6408 10 18.3451 10ZM15.1901 17.5664H6.80986V12.1836H15.1901V17.5664ZM18.3451 5.68359H3.65493C2.76761 5.68359 2.01174 6.00521 1.38732 6.64844C0.795775 7.25781 0.5 8.01953 0.5 8.93359V15.4336H4.69014V19.75H17.3099V15.4336H21.5V8.93359C21.5 8.01953 21.1878 7.25781 20.5634 6.64844C19.9718 6.00521 19.2324 5.68359 18.3451 5.68359Z" fill="white"/>
</svg>
