<svg width="22" height="22" viewBox="0 0 22 22" fill="none" xmlns="http://www.w3.org/2000/svg">
<path d="M8.32574 0.5C9.71448 0.5 11.0094 0.856568 12.2105 1.56971C13.4115 2.24531 14.3499 3.18365 15.0255 4.38472C15.7386 5.58579 16.0952 6.89946 16.0952 8.32574C16.0952 10.2399 15.4759 11.929 14.2373 13.3928L14.5751 13.7306H15.5322L21.5 19.6984L19.6984 21.5L13.7306 15.5322V14.5751L13.3928 14.2373C11.929 15.4759 10.2399 16.0952 8.32574 16.0952C6.89946 16.0952 5.58579 15.7574 4.38472 15.0818C3.18365 14.3686 2.22654 13.4115 1.5134 12.2105C0.837802 11.0094 0.5 9.71448 0.5 8.32574C0.5 6.89946 0.837802 5.58579 1.5134 4.38472C2.22654 3.18365 3.18365 2.24531 4.38472 1.56971C5.58579 0.856568 6.89946 0.5 8.32574 0.5ZM8.32574 2.92091C6.8244 2.92091 5.54826 3.44638 4.49732 4.49732C3.44638 5.54826 2.92091 6.8244 2.92091 8.32574C2.92091 9.82708 3.44638 11.1032 4.49732 12.1542C5.54826 13.2051 6.8244 13.7306 8.32574 13.7306C9.82708 13.7306 11.1032 13.2051 12.1542 12.1542C13.2051 11.1032 13.7306 9.82708 13.7306 8.32574C13.7306 6.8244 13.2051 5.54826 12.1542 4.49732C11.1032 3.44638 9.82708 2.92091 8.32574 2.92091Z" fill="#808080"/>
</svg>
