<svg width="28" height="28" viewBox="0 0 28 28" fill="none" xmlns="http://www.w3.org/2000/svg">
<path d="M14 24.1221C12.2911 24.1221 10.6917 23.7277 9.20188 22.939C7.71205 22.1064 6.50704 20.989 5.58685 19.5869C5.58685 18.7543 6.11268 17.9656 7.16432 17.2207C8.04069 16.6072 9.17997 16.1252 10.5822 15.7746C11.8529 15.4241 12.9922 15.2488 14 15.2488C15.0078 15.2488 16.1471 15.4241 17.4178 15.7746C18.82 16.1252 19.9593 16.6072 20.8357 17.2207C21.8873 17.9656 22.4131 18.7543 22.4131 19.5869C21.493 20.989 20.2879 22.1064 18.7981 22.939C17.3083 23.7277 15.7089 24.1221 14 24.1221ZM14 4.20657C15.1831 4.20657 16.169 4.62285 16.9577 5.4554C17.7903 6.24413 18.2066 7.23005 18.2066 8.41315C18.2066 9.55243 17.7903 10.5383 16.9577 11.3709C16.169 12.2034 15.1831 12.6197 14 12.6197C12.8169 12.6197 11.8091 12.2034 10.9765 11.3709C10.1878 10.5383 9.79343 9.55243 9.79343 8.41315C9.79343 7.23005 10.1878 6.24413 10.9765 5.4554C11.8091 4.62285 12.8169 4.20657 14 4.20657ZM14 0C12.1596 0 10.3631 0.350548 8.61033 1.05164C6.90141 1.75274 5.38967 2.76056 4.07512 4.07512C2.76056 5.38967 1.75274 6.92332 1.05164 8.67606C0.350548 10.385 0 12.1596 0 14C0 15.8404 0.350548 17.6369 1.05164 19.3897C1.75274 21.0986 2.76056 22.6103 4.07512 23.9249C5.38967 25.2394 6.90141 26.2473 8.61033 26.9484C10.3631 27.6495 12.1596 28 14 28C15.8404 28 17.615 27.6495 19.3239 26.9484C21.0767 26.2473 22.6103 25.2394 23.9249 23.9249C25.2394 22.6103 26.2473 21.0986 26.9484 19.3897C27.6495 17.6369 28 15.8404 28 14C28 11.4585 27.3646 9.11424 26.0939 6.96714C24.867 4.82003 23.18 3.13302 21.0329 1.9061C18.8858 0.635368 16.5415 0 14 0Z" fill="#731717"/>
</svg>
